<?xml version="1.0" standalone="no"?>
<!DOCTYPE svg PUBLIC "-//W3C//DTD SVG 1.1//EN" "http://www.w3.org/Graphics/SVG/1.1/DTD/svg11.dtd" >
<svg xmlns="http://www.w3.org/2000/svg">
<metadata></metadata>
<defs>
<font id="bw_quinta_prolight" horiz-adv-x="1118" >
<font-face units-per-em="2048" ascent="1536" descent="-512" />
<missing-glyph horiz-adv-x="614" />
<glyph unicode="&#xfb01;" horiz-adv-x="1116" d="M31 961v26l170 12v207q0 165 58 247.5t202 82.5q81 0 131.5 -9.5t114.5 -33.5q27 -11 29 -22q1 -4 -1 -9l-4 -14q-5 -21 -12 -29.5t-19 -3.5q-92 43 -223 43q-115 0 -151.5 -58t-36.5 -226v-170h579q31 0 31 -31v-942q0 -31 -31 -31h-26q-31 0 -31 31v899h-522v-899 q0 -31 -31 -31h-27q-30 0 -30 31v899h-140q-30 0 -30 31z" />
<glyph unicode="&#xfb02;" horiz-adv-x="1187" d="M31 961v26l170 12v207q0 164 56.5 247t191.5 83q80 0 196 -43q1 0 5 -2l5 -2.5t5 -2t5 -3t4 -3.5t3.5 -3.5t1.5 -4t1 -5t-1 -5.5l-4 -14q-5 -21 -12 -29.5t-19 -3.5q-37 17 -85 30t-77 13q-115 0 -151.5 -58t-36.5 -226v-170h280q31 0 31 -31v-12q0 -31 -31 -31h-280 v-899q0 -31 -31 -31h-27q-30 0 -30 31v899h-140q-30 0 -30 31zM817 303v1202q0 31 31 31h26q31 0 31 -31v-1151q0 -176 10.5 -235.5t57.5 -59.5q8 0 16.5 1t14.5 2t14.5 3.5t13 4t14.5 6t14 6.5l16 8l16 8q16 7 24 -16l10 -31q4 -11 -3 -18t-21 -15q-3 -1 -4 -2 q-19 -10 -60 -23t-75 -13q-41 0 -68 12.5t-42.5 33t-23.5 65t-10 89t-2 123.5z" />
<glyph horiz-adv-x="0" />
<glyph horiz-adv-x="682" />
<glyph unicode="&#xd;" horiz-adv-x="614" />
<glyph unicode=" "  horiz-adv-x="614" />
<glyph unicode="&#x09;" horiz-adv-x="614" />
<glyph unicode="&#xa0;" horiz-adv-x="614" />
<glyph unicode="!" horiz-adv-x="376" d="M121 43q0 29 19 45t48 16t48.5 -16t19.5 -45q0 -63 -68 -63q-67 0 -67 63zM141 1444l11 -1106q0 -31 30 -31h15q30 0 30 31l11 1106q0 31 -31 31h-35q-31 0 -31 -31z" />
<glyph unicode="&#x22;" horiz-adv-x="368" d="M31 1538q-2 17 8 28t27 11h53q17 0 27 -11t8 -28l-21 -225q-1 -10 -10.5 -17.5t-20.5 -7.5h-14q-10 0 -20 7.5t-11 17.5zM215 1538q-2 17 8 28t27 11h53q17 0 27 -11t8 -28l-21 -225q-1 -10 -10 -17.5t-20 -7.5h-15q-9 0 -19 7.5t-11 17.5z" />
<glyph unicode="#" horiz-adv-x="1067" d="M90 313l2 17q4 28 33 28h164l33 316h-160q-32 0 -29 33l2 16q2 12 11 20.5t22 8.5h162l24 223q3 29 33 29h27q31 0 28 -33l-24 -219h307l25 223q3 29 32 29h27q32 0 29 -33l-25 -219h164q32 0 29 -33l-2 -17q-4 -28 -33 -28h-166l-33 -316h162q32 0 29 -32l-2 -17 q-3 -28 -31 -28h-168l-27 -252q-3 -29 -33 -29h-24q-32 0 -29 33l27 248h-309l-27 -252q-3 -29 -33 -29h-24q-32 0 -29 33l27 248h-162q-32 0 -29 32zM377 358h307l33 316h-307z" />
<glyph unicode="$" horiz-adv-x="1116" d="M145 174l7 10q8 12 20.5 14t26.5 -8q161 -120 323 -131v627q-56 24 -93.5 42.5t-78.5 42.5t-66 48t-47 54t-32 66t-10 79q0 152 89.5 252t237.5 119v141q0 31 31 31h27q30 0 30 -31v-137q86 -3 157.5 -31.5t156.5 -89.5q21 -15 4 -45l-6 -10q-21 -38 -60 -11 q-46 34 -74 51.5t-76.5 35t-101.5 20.5v-565q8 -3 16.5 -6.5t18.5 -8t14 -6.5q69 -30 111.5 -51.5t87 -52.5t68 -62.5t38.5 -76.5t15 -101q0 -176 -103.5 -278.5t-265.5 -120.5v-142q0 -30 -30 -30h-27q-31 0 -31 30v138q-97 4 -182 40.5t-188 112.5q-23 17 -7 41zM285 1018 q0 -127 237 -234v527q-74 -14 -129.5 -62.5t-81.5 -108.5t-26 -122zM610 59q92 12 157.5 63.5t93.5 117t28 137.5q0 51 -22.5 93.5t-67 75.5t-85.5 54.5t-104 48.5v-590z" />
<glyph unicode="%" horiz-adv-x="1546" d="M92 713q0 132 77.5 221.5t199.5 89.5q125 0 200.5 -89t75.5 -222q0 -141 -74.5 -226.5t-201.5 -85.5q-124 0 -200.5 86t-76.5 226zM182 713q0 -93 50.5 -163.5t136.5 -70.5q87 0 136.5 70t49.5 164q0 88 -50 160.5t-136 72.5q-85 0 -136 -72.5t-51 -160.5zM406 11 q-5 11 6 26l635 946q15 21 36 21h31q19 0 25 -11t-4 -26l-637 -947q-13 -20 -35 -20h-33q-19 0 -24 11zM901 291q0 132 77.5 221.5t199.5 89.5q125 0 200.5 -89t75.5 -222q0 -141 -74.5 -226t-201.5 -85q-124 0 -200.5 85.5t-76.5 225.5zM991 291q0 -93 50.5 -163.5 t136.5 -70.5q87 0 136.5 70t49.5 164q0 88 -50 160.5t-136 72.5q-85 0 -136 -72.5t-51 -160.5z" />
<glyph unicode="&#x26;" horiz-adv-x="1263" d="M92 440q0 176 63.5 280t206.5 181q-79 127 -79 244q0 86 29 154.5t77.5 110t106.5 63.5t120 22q196 0 353 -123q22 -16 10 -43l-4 -8q-22 -42 -57 -16q-145 112 -273 112q-41 0 -78 -7t-76 -26t-67 -48.5t-46 -79.5t-18 -115q0 -62 21.5 -114.5t79.5 -129.5 q16 -22 45 -58t78.5 -93.5t88.5 -103.5t113.5 -132.5t116.5 -134.5q14 35 30 81.5t25.5 78.5t22.5 79t16 56q5 15 16 20t25 -2l23 -12q24 -12 18 -39q-51 -183 -118 -330q110 -124 233 -270q12 -15 6.5 -26t-24.5 -11h-23q-22 0 -39 20q-34 40 -97 110.5t-87 98.5 q-27 -41 -43.5 -63.5t-45.5 -56.5t-57.5 -53t-67.5 -39t-88 -28.5t-108 -8.5q-106 0 -191 43t-135 111.5t-76 147.5t-26 158zM182 440q0 -162 97.5 -272.5t261.5 -110.5q111 0 184 56.5t147 181.5q-386 436 -434 500l-24 32q-57 -30 -95.5 -60t-71.5 -74.5t-49 -107 t-16 -145.5z" />
<glyph unicode="'" horiz-adv-x="184" d="M31 1538q-2 17 8 28t27 11h53q17 0 27 -11t8 -28l-21 -225q-1 -10 -10.5 -17.5t-20.5 -7.5h-14q-10 0 -20 7.5t-11 17.5z" />
<glyph unicode="(" horiz-adv-x="522" d="M137 588q0 -233 59 -445t177 -448q11 -23 35 -23h6q17 0 23.5 10t0.5 25q-101 245 -156 460.5t-55 420.5q0 210 55 423.5t156 458.5q6 15 -0.5 25t-23.5 10h-6q-24 0 -35 -22q-116 -234 -176 -450.5t-60 -444.5z" />
<glyph unicode=")" horiz-adv-x="524" d="M86 -293q-6 -15 1 -25t24 -10h6q23 0 35 23q117 235 176 447.5t59 445.5q0 228 -59.5 445t-175.5 450q-11 22 -35 22h-6q-17 0 -24 -10t-1 -25q101 -245 156 -458.5t55 -423.5q0 -205 -55 -420.5t-156 -460.5z" />
<glyph unicode="*" horiz-adv-x="671" d="M53 1212l17 52q5 15 18.5 21t28.5 -1l180 -76l-23 197q-2 17 8 28t27 11h53q17 0 27 -11t8 -28l-18 -195l176 80q15 7 28.5 1t18.5 -21l16 -51q6 -15 -1.5 -27.5t-24.5 -17.5l-186 -41l131 -144q11 -12 9.5 -27t-14.5 -24l-45 -33q-12 -10 -26 -6t-23 19l-100 167 l-94 -174q-9 -14 -24 -17t-27 7l-43 31q-14 9 -16.5 24t9.5 27l127 147l-190 37q-17 5 -25 17.5t-2 27.5z" />
<glyph unicode="+" horiz-adv-x="1126" d="M164 510v12q0 31 31 31h325v317q0 31 31 31h27q30 0 30 -31v-317h324q31 0 31 -31v-12q0 -31 -31 -31h-324v-325q0 -31 -30 -31h-27q-31 0 -31 31v325h-325q-31 0 -31 31z" />
<glyph unicode="," horiz-adv-x="303" d="M53 -129l86 211q6 15 20 19.5t27 -3.5l50 -28q14 -8 17 -22t-7 -28l-131 -184q-16 -19 -39 -8l-10 6q-22 15 -13 37z" />
<glyph unicode="-" horiz-adv-x="675" d="M61 514v12q0 31 31 31h492q30 0 30 -31v-12q0 -31 -30 -31h-492q-31 0 -31 31z" />
<glyph unicode="." horiz-adv-x="233" d="M49 43q0 29 19.5 45t48.5 16t48 -16t19 -45q0 -63 -67 -63q-68 0 -68 63z" />
<glyph unicode="/" horiz-adv-x="655" d="M45 -139l481 1655q6 20 37 20h29q31 0 20 -37l-483 -1655q-6 -20 -35 -20h-31q-29 0 -18 37z" />
<glyph unicode="0" horiz-adv-x="1081" d="M92 502q0 226 123 374t326 148t325.5 -148t122.5 -374t-122.5 -374t-325.5 -148t-326 148t-123 374zM182 502q0 -121 44.5 -222t127.5 -162t187 -61t186.5 61t127 162t44.5 222t-44.5 222t-127 161.5t-186.5 60.5q-157 0 -258 -129.5t-101 -314.5z" />
<glyph unicode="1" horiz-adv-x="585" d="M96 831q-15 30 10 43l246 134q17 10 39 10h21q30 0 30 -31v-956q0 -31 -30 -31h-27q-31 0 -31 31l4 880l-200 -106q-40 -19 -58 18z" />
<glyph unicode="2" horiz-adv-x="899" d="M94 39q-6 32 1.5 49.5t33.5 40.5l373 324q41 35 57.5 50t49.5 49.5t48 59t28 59.5t13 70q0 89 -60.5 147t-162.5 58q-95 0 -157.5 -21.5t-129.5 -64.5q-33 -20 -57 19l-4 6q-16 24 10 43q141 96 338 96q37 0 76 -6.5t82.5 -25t77 -46.5t55.5 -76t22 -108 q0 -58 -13.5 -105.5t-43.5 -88t-52 -62.5t-64 -59q-4 -4 -6 -5.5t-5 -4.5t-6 -5l-408 -360h586q31 0 31 -31v-10q0 -31 -31 -31h-614q-61 0 -68 39z" />
<glyph unicode="3" horiz-adv-x="970" d="M98 -188l6 10q16 29 41 8q73 -64 143 -92.5t171 -28.5q89 0 155.5 30t103 80t53.5 105.5t17 116.5q0 36 -12.5 74.5t-38.5 75t-61.5 66t-86.5 47.5t-108 18h-94q-31 0 -31 30v10q0 31 31 31h10q85 0 152 27.5t104 70.5t55.5 87.5t18.5 85.5q0 31 -7 64.5t-27 73.5t-51 71 t-84 52t-120 21q-58 0 -110.5 -14.5t-81.5 -30t-68 -41.5q-30 -20 -43 6l-4 8q-12 28 6 44q141 106 320 106q161 0 260.5 -100.5t99.5 -259.5q0 -171 -182 -285q106 -45 175 -132.5t69 -205.5q0 -192 -109 -301t-313 -109q-213 0 -351 138q-21 21 -8 43z" />
<glyph unicode="4" horiz-adv-x="1103" d="M91 58v10.5t2.5 9.5t3 8t4.5 9.5t5 8.5l545 943q16 24 39 18l25 -6q21 -5 25.5 -12.5t-5.5 -24.5l-551 -950h545v409q0 30 31 39l24 8q14 4 22.5 -5t8.5 -25v-426h166q31 0 31 -31v-10q0 -31 -31 -31h-166v-317q0 -31 -31 -31h-26q-31 0 -31 31v317h-584q-38 0 -47 29 q-3 9 -4 15.5t-1 13.5z" />
<glyph unicode="5" horiz-adv-x="1015" d="M96 -178l10 16q18 27 44 4q149 -133 311 -133q88 0 156 23t108 58t65.5 82.5t34.5 91t9 89.5q0 76 -24.5 135t-62 94t-89 58t-99.5 31t-98 8q-33 0 -63 -2t-60.5 -7t-48.5 -9t-50.5 -11.5t-43.5 -9.5q-14 -3 -23.5 5.5t-9.5 23.5v604q0 31 31 31h610q31 0 31 -31v-10 q0 -31 -31 -31h-553v-496q89 21 211 21q227 0 345 -105t118 -299q0 -90 -31 -166.5t-88.5 -133.5t-146 -89.5t-197.5 -32.5q-118 0 -203 41t-156 109q-20 17 -6 41z" />
<glyph unicode="6" horiz-adv-x="1060" d="M92 512q0 256 49 398.5t170 269.5q103 109 187.5 159t199.5 82q13 4 23 3t18 -13l9 -12q7 -10 6 -24.5t-15 -18.5q-92 -24 -189.5 -82t-182.5 -150q-94 -103 -133.5 -204t-49.5 -277q166 182 402 182q383 0 383 -395q0 -85 -30.5 -164.5t-87 -144t-145.5 -103t-196 -38.5 q-99 0 -173 26.5t-120.5 72t-74.5 115t-39 145.5t-11 173zM180 453q0 -83 16.5 -151t53 -125t102.5 -88.5t158 -31.5q159 0 264 107.5t105 265.5q0 53 -7.5 95.5t-29 85.5t-56.5 72t-95 47t-140 18q-98 0 -206.5 -64.5t-162.5 -128.5h-2v-102z" />
<glyph unicode="7" horiz-adv-x="1009" d="M92 963v10q0 31 31 31h764q31 0 31 -31v-6q0 -13 -7 -27l-596 -1319q-5 -12 -15.5 -18t-23.5 -2l-28 8q-20 6 -24.5 14t3.5 23l596 1286h-700q-31 0 -31 31z" />
<glyph unicode="8" horiz-adv-x="1089" d="M92 395q0 71 23.5 131t63 101t84 68t93.5 40q-80 17 -141 89t-61 192q0 166 102 271.5t289 105.5t289 -105.5t102 -271.5q0 -120 -61.5 -192t-141.5 -89q49 -13 93.5 -40t84 -68t63 -101t23.5 -131q0 -185 -117.5 -300t-334.5 -115t-335 115t-118 300zM182 395 q0 -88 30 -154.5t81.5 -105.5t115 -58.5t136.5 -19.5t136.5 19.5t115 58.5t81 105.5t29.5 154.5q0 56 -19.5 104.5t-60 90.5t-113 66t-169.5 24t-170 -24t-113.5 -66t-60 -90.5t-19.5 -104.5zM244 1016q0 -115 91.5 -188t209.5 -76q118 3 209.5 76t91.5 188q0 146 -87 222.5 t-214 76.5t-214 -76.5t-87 -222.5z" />
<glyph unicode="9" horiz-adv-x="1060" d="M92 573q0 85 30.5 165t87 144t145.5 103t196 39q99 0 173 -26.5t120.5 -72t74.5 -115t39 -145.5t11 -173q0 -242 -49 -381.5t-170 -266.5q-103 -109 -187.5 -159t-200.5 -82q-13 -4 -22.5 -3t-17.5 13l-9 12q-7 10 -6 24.5t15 18.5q92 24 189.5 82t182.5 150 q93 102 133 199.5t50 258.5q-168 -180 -402 -180q-383 0 -383 395zM182 573q0 -53 7.5 -95.5t29 -85.5t56.5 -71.5t95 -46.5t140 -18q98 0 206.5 64.5t162.5 128.5q2 33 2 102q0 83 -16.5 150.5t-53 124.5t-102.5 88.5t-158 31.5q-159 0 -264 -107.5t-105 -265.5z" />
<glyph unicode=":" horiz-adv-x="233" d="M49 43q0 29 19.5 45t48.5 16t48 -16t19 -45q0 -63 -67 -63q-68 0 -68 63zM49 963q0 29 19.5 45t48.5 16t48 -16t19 -45q0 -64 -67 -64q-68 0 -68 64z" />
<glyph unicode=";" horiz-adv-x="303" d="M53 -129l86 211q6 15 20 19.5t27 -3.5l50 -28q14 -8 17 -22t-7 -28l-131 -184q-16 -19 -39 -8l-10 6q-22 15 -13 37zM119 963q0 29 19 45t48 16t48.5 -16t19.5 -45q0 -64 -68 -64q-67 0 -67 64z" />
<glyph unicode="&#x3c;" horiz-adv-x="1105" d="M154 498v32q0 19 24 33l740 420q14 9 24 0t10 -27v-24q0 -24 -24 -37l-688 -381l688 -383q24 -13 24 -37v-24q0 -18 -9.5 -25.5t-24.5 0.5l-740 418q-24 14 -24 35z" />
<glyph unicode="=" horiz-adv-x="1126" d="M164 326v12q0 31 31 31h737q31 0 31 -31v-12q0 -31 -31 -31h-737q-31 0 -31 31zM164 692v13q0 30 31 30h737q31 0 31 -30v-13q0 -30 -31 -30h-737q-31 0 -31 30z" />
<glyph unicode="&#x3e;" horiz-adv-x="1105" d="M154 70v24q0 24 24 37l688 383l-688 381q-24 13 -24 37v24q0 18 10 27t24 0l740 -420q24 -14 24 -33v-32q0 -21 -24 -35l-740 -418q-15 -8 -24.5 -0.5t-9.5 25.5z" />
<glyph unicode="?" horiz-adv-x="765" d="M49 1323q-18 22 6 43q45 39 68 57t60 38t78.5 27t98.5 7q51 0 98.5 -9t97 -32.5t86 -59.5t60 -96t23.5 -137q0 -44 -15.5 -86.5t-34.5 -72.5t-56.5 -67.5t-59 -55.5t-63.5 -52q-44 -35 -69 -60.5t-50 -65t-36 -91.5t-11 -123v-2l-2 -147q0 -31 -31 -31h-14q-31 0 -31 31 l-2 145v4q0 73 14 133.5t40.5 104.5t51 73t58.5 58q15 12 49 39.5t51.5 43t44 43.5t40 51.5t24 57t10.5 70.5q0 107 -68 181.5t-209 74.5q-76 0 -128.5 -26t-123.5 -86q-24 -19 -45 6zM223 43q0 29 19.5 45t48.5 16t48 -16t19 -45q0 -63 -67 -63q-68 0 -68 63z" />
<glyph unicode="@" horiz-adv-x="2080" d="M137 489q0 163 26.5 299.5t74 238.5t117 182.5t151 133.5t180 87.5t200.5 49.5t216 15q149 0 274 -31.5t231.5 -102t180 -178.5t115 -268.5t41.5 -363.5q0 -76 -9.5 -142.5t-34.5 -131.5t-63 -111t-99.5 -74.5t-140.5 -28.5q-221 0 -284 164q-21 -22 -48.5 -45t-72 -52.5 t-100.5 -48t-111 -18.5q-326 0 -326 439q0 211 106 325.5t302 114.5q91 0 278 -18q25 -3 25 -25v-436q1 -54 5 -94t18 -86t38 -74.5t67 -48t103 -19.5q121 0 188.5 102.5t67.5 307.5q0 866 -751 866q-104 0 -195 -12.5t-181.5 -42.5t-163.5 -77t-136.5 -120t-106.5 -167.5 t-67.5 -224t-24.5 -284.5q0 -154 22.5 -282t61.5 -222t96 -167t123 -120t145.5 -77t160 -42.5t170.5 -12.5q137 0 272.5 39t222.5 92q27 18 43 -8l15 -25q7 -12 4 -24.5t-15 -18.5q-111 -59 -254.5 -96t-287.5 -37q-155 0 -281.5 29.5t-238 101t-187 184t-119 286.5 t-43.5 400zM745 502q-10 -361 256 -361q73 0 151 53.5t136 118.5q-10 63 -10 236v303q-123 12 -209 12q-92 0 -158 -32t-100 -87.5t-49 -114t-17 -128.5z" />
<glyph unicode="A" horiz-adv-x="1257" d="M63 35l502 1415q9 25 35 25h57q26 0 35 -25l502 -1415q3 -7 3 -13q0 -7 -4 -12q-7 -10 -24 -10h-41q-25 0 -34 25l-131 383h-668l-131 -383q-9 -25 -35 -25h-41q-17 0 -24 10q-4 5 -4 12q0 6 3 13zM324 492h610l-305 899z" />
<glyph unicode="B" horiz-adv-x="1122" d="M205 31v1413q0 15 7 22.5t24 8.5q181 20 258 20q220 0 325 -97.5t105 -293.5q0 -223 -207 -311q54 -16 98.5 -42.5t84.5 -69.5t62.5 -109t22.5 -150q0 -199 -122 -320.5t-328 -121.5q-87 0 -299 20q-17 1 -24 8.5t-7 22.5zM297 82q154 -14 240 -14q53 0 100 9t95 33.5 t82 62.5t55.5 102t21.5 147q0 85 -29.5 147t-82 98t-118.5 53t-147 17h-98h-39q-39 -2 -80 -2v-653zM297 819q25 2 154 2q378 0 378 283q0 88 -26 149.5t-74 94t-104 46t-129 13.5q-101 0 -199 -12v-576z" />
<glyph unicode="C" horiz-adv-x="1200" d="M137 737q0 376 157.5 567t442.5 191q112 0 196 -23.5t161 -76.5q9 -6 11 -17t-3 -20l-19 -33q-7 -14 -22.5 -16t-30.5 8q-149 90 -295 90q-102 0 -185 -33.5t-142 -93.5t-99 -144.5t-59 -184t-19 -214.5q0 -144 30.5 -264t91 -211.5t158.5 -142.5t224 -51q71 0 143 24 t109.5 46.5t93.5 60.5q18 12 31 12q15 0 25 -16l16 -27q6 -11 6 -19q0 -11 -10 -18q-197 -151 -412 -151q-285 0 -442.5 190.5t-157.5 566.5z" />
<glyph unicode="D" horiz-adv-x="1368" d="M205 31v1413q0 28 31 31q190 20 296 20q323 0 511 -197.5t188 -560.5t-187.5 -560t-511.5 -197q-111 0 -296 20q-31 3 -31 31zM297 78q133 -10 235 -10q295 0 450 176.5t155 492.5t-155 493t-450 177q-130 0 -235 -10v-1319z" />
<glyph unicode="E" horiz-adv-x="1024" d="M205 31v1413q0 31 31 31h612q31 0 31 -31v-23q0 -30 -31 -30h-551v-584h479q31 0 31 -31v-22q0 -31 -31 -31h-479v-639h573q31 0 31 -31v-22q0 -31 -31 -31h-634q-31 0 -31 31z" />
<glyph unicode="F" horiz-adv-x="1011" d="M205 31v1413q0 31 31 31h663q31 0 31 -31v-23q0 -30 -31 -30h-602v-607h496q30 0 30 -30v-23q0 -31 -30 -31h-496v-669q0 -31 -31 -31h-30q-31 0 -31 31z" />
<glyph unicode="G" horiz-adv-x="1363" d="M137 737q0 375 162.5 566.5t448.5 191.5q220 0 366 -100q9 -6 11 -17t-3 -20l-18 -33q-7 -14 -22.5 -16t-30.5 8q-149 90 -306 90q-127 0 -226 -51.5t-161.5 -142.5t-94.5 -212t-32 -264q0 -144 30.5 -264t91 -211.5t158.5 -142.5t224 -51q102 0 203 51t180 119v454h-377 q-30 0 -30 31v22q0 31 30 31h439q30 0 30 -31v-22v-4v-4v-463q0 -110 21 -221q1 -3 1 -7q0 -9 -7 -16q-9 -8 -25 -8h-4q-52 0 -63 113l-3 10q-2 0 -2 2q-85 -62 -189.5 -103.5t-201.5 -41.5q-285 0 -442.5 190.5t-157.5 566.5z" />
<glyph unicode="H" horiz-adv-x="1390" d="M205 31v1413q0 31 31 31h30q31 0 31 -31v-651h797v651q0 31 30 31h31q31 0 31 -31v-1413q0 -31 -31 -31h-31q-30 0 -30 31v678h-797v-678q0 -31 -31 -31h-30q-31 0 -31 31z" />
<glyph unicode="I" horiz-adv-x="501" d="M205 31v1413q0 31 31 31h30q31 0 31 -31v-1413q0 -31 -31 -31h-30q-31 0 -31 31z" />
<glyph unicode="J" horiz-adv-x="634" d="M62 36q2 2 1 7l17 41q5 12 8 14.5t16 -0.5q78 -30 156 -30q69 0 94 68.5t25 217.5v1090q0 31 31 31h30q31 0 31 -31v-1122q0 -194 -45.5 -268t-159.5 -74q-49 0 -84 6t-90 26q-1 0 -6.5 2.5t-6.5 3t-6.5 3.5t-5.5 4t-4 5q-2 2 -2 4q0 1 1 2z" />
<glyph unicode="K" horiz-adv-x="1165" d="M205 31v1413q0 31 31 31h30q31 0 31 -31v-955l661 965q15 21 37 21h37q19 0 25 -11t-4 -26l-459 -668l504 -733q6 -11 6 -19q0 -5 -2 -8q-6 -10 -25 -10h-39q-23 0 -37 20l-460 682l-244 -348v-323q0 -31 -31 -31h-30q-31 0 -31 31z" />
<glyph unicode="L" horiz-adv-x="937" d="M205 31v1413q0 31 31 31h32q31 0 31 -31l-2 -1360h549q31 0 31 -31v-22q0 -31 -31 -31h-610q-31 0 -31 31z" />
<glyph unicode="M" horiz-adv-x="1613" d="M205 31v1413q0 31 31 31h12q24 0 37 -19l522 -821l522 821q13 19 37 19h12q31 0 31 -31v-1413q0 -31 -31 -31h-30q-31 0 -31 31l8 1255l-451 -711q-20 -32 -63 -34h-2h-2h-2q-44 3 -64 34l-452 711l8 -1255q0 -31 -31 -31h-30q-31 0 -31 31z" />
<glyph unicode="N" horiz-adv-x="1390" d="M205 31v1413q0 31 31 31h10q24 0 37 -19l823 -1266l-12 1254q0 31 30 31h31q31 0 31 -31v-1413q0 -31 -31 -31h-8q-25 0 -37 18l-825 1268l12 -1255q0 -31 -31 -31h-30q-31 0 -31 31z" />
<glyph unicode="O" horiz-adv-x="1517" d="M137 737q0 376 164 567t457 191q291 0 456.5 -191.5t165.5 -566.5q0 -376 -164 -566.5t-458 -190.5q-293 0 -457 191t-164 566zM231 737q0 -317 136 -493t391 -176q257 0 392.5 176t135.5 493t-136 493.5t-392 176.5q-255 0 -391 -176.5t-136 -493.5z" />
<glyph unicode="P" horiz-adv-x="1081" d="M205 31v1413q0 28 31 31q212 20 301 20q227 0 344.5 -113t117.5 -315q0 -89 -28 -163t-75 -124t-109.5 -85t-131 -50.5t-141.5 -15.5q-150 0 -215 6v-604q0 -31 -31 -31h-32q-31 0 -31 31zM299 721q82 -4 217 -4q85 0 153.5 22t111.5 57t71.5 82t40.5 94t12 95 q0 51 -11.5 98.5t-39 92t-68.5 77t-104.5 52.5t-142.5 20q-86 0 -240 -14v-672z" />
<glyph unicode="Q" horiz-adv-x="1519" d="M137 737q0 375 165 566.5t458 191.5t457.5 -191.5t164.5 -566.5q0 -130 -21 -240.5t-65.5 -204.5t-113 -159.5t-163 -105t-216.5 -42.5h-21q-114 0 -252 29q72 -67 239.5 -137t322.5 -102l82 -17q31 -7 24 -45l-2 -12q-3 -15 -16 -23q-10 -5 -21 -5q-4 0 -8 1l-70 17 q-514 121 -782 436q-162 191 -162 610zM231 737q0 -359 121 -514t408 -155q255 0 391.5 176t136.5 493t-136.5 493.5t-391.5 176.5t-392 -176.5t-137 -493.5z" />
<glyph unicode="R" d="M205 31v1413q0 28 31 31q212 20 301 20q227 0 344.5 -114t117.5 -318q0 -165 -87.5 -271t-227.5 -147l387 -608q7 -10 7 -18q0 -4 -2 -8q-6 -11 -25 -11h-37q-26 0 -37 20l-383 607q-40 -6 -80 -6q-150 0 -215 6v-596q0 -31 -31 -31h-32q-31 0 -31 31zM299 713 q82 -4 217 -4q105 0 184 33t122 87t63 113t20 121q0 66 -19.5 124.5t-60.5 109t-114.5 80.5t-171.5 30q-86 0 -240 -14v-680z" />
<glyph unicode="S" horiz-adv-x="1071" d="M145 162l23 33q16 23 43 2q91 -74 155 -101.5t171 -27.5q132 0 217.5 83.5t85.5 208.5q0 43 -10.5 82t-24.5 68.5t-41 58.5t-47.5 47.5t-56 41.5t-55.5 33.5t-57.5 30t-49.5 26.5q-157 83 -232.5 168t-75.5 208q0 74 20.5 136.5t55 105t80 72.5t95 43.5t100.5 13.5 q99 0 184.5 -29t173.5 -92q22 -16 4 -45l-10 -16q-12 -19 -31 -19q-13 0 -28 9q-166 104 -283 104q-122 0 -194 -71.5t-72 -198.5q0 -35 10.5 -68.5t26 -59t42 -52t49.5 -44.5t57.5 -39.5t57.5 -33.5t58 -30.5t51 -27.5q77 -42 127 -78.5t91 -85t60 -110t19 -141.5 q0 -78 -24.5 -143.5t-64.5 -109.5t-92 -75t-105 -45t-105 -14q-132 0 -204.5 28.5t-186.5 112.5q-14 10 -14 22q0 9 7 19z" />
<glyph unicode="T" horiz-adv-x="1062" d="M61 1421v23q0 31 31 31h879q30 0 30 -31v-23q0 -30 -30 -30h-393v-1360q0 -31 -31 -31h-31q-31 0 -31 31v1360h-393q-31 0 -31 30z" />
<glyph unicode="U" horiz-adv-x="1333" d="M164 535v909q0 31 31 31h30q31 0 31 -31v-909q0 -219 100 -343t310 -124q211 0 311 123.5t100 343.5v909q0 31 31 31h31q30 0 30 -31v-909q0 -265 -130 -410t-373 -145t-372.5 144.5t-129.5 410.5z" />
<glyph unicode="V" horiz-adv-x="1251" d="M63 1440q-3 7 -3 13q0 7 4 12q7 10 24 10h29q26 0 35 -25l475 -1362l473 1362q9 25 35 25h28q17 0 24 -10q4 -5 4 -12q0 -6 -3 -13l-494 -1415q-9 -25 -35 -25h-65q-26 0 -35 25z" />
<glyph unicode="W" horiz-adv-x="1806" d="M63 1440q-2 7 -2 12q-1 7 3 13q6 10 24 10h31q26 0 35 -25l442 -1356l262 797l-180 549q-10 35 24 35h31q26 0 35 -25l442 -1356l443 1356q9 25 35 25h30q18 0 24 -10q4 -6 3 -13q0 -6 -2 -12l-465 -1415q-9 -25 -35 -25h-65q-26 0 -35 25l-240 727l-239 -727 q-9 -25 -35 -25h-66q-26 0 -35 25z" />
<glyph unicode="X" horiz-adv-x="1212" d="M66 1464q6 11 26 11h35q24 0 39 -21l448 -651l437 651q15 21 36 21h37q19 0 25 -11q2 -4 2 -9q0 -8 -6 -17l-479 -713l473 -688q10 -15 4 -26t-25 -11h-37q-23 0 -37 20l-440 642l-434 -642q-14 -20 -35 -20h-39q-19 0 -24 11t6 26l475 700l-483 701q-7 9 -7 17q1 5 3 9z " />
<glyph unicode="Y" horiz-adv-x="1169" d="M64 1464q6 11 26 11h35q27 0 39 -21l422 -706l420 706q12 21 38 21h35q20 0 26 -11q2 -4 2 -9q0 -8 -5 -17l-471 -774v-633q0 -31 -31 -31h-31q-30 0 -30 31v633l-471 774q-6 9 -6 17q0 5 2 9z" />
<glyph unicode="Z" horiz-adv-x="1064" d="M81 55q0 4 1 8q1 5 5.5 14t7 13.5t10 16.5t10.5 18l751 1266h-698q-31 0 -31 30v23q0 31 31 31h784q31 0 31 -31v-8q0 -17 -14 -37l-779 -1315h762q31 0 31 -31v-22q0 -31 -31 -31h-790q-43 0 -56 6.5t-22 30.5q-3 9 -3 18z" />
<glyph unicode="[" horiz-adv-x="598" d="M205 -297v1772q0 30 31 30h28h2h219q31 0 31 -30v-19q0 -31 -31 -31h-190v-1673h190q31 0 31 -31v-18q0 -31 -31 -31h-219h-2h-28q-31 0 -31 31z" />
<glyph unicode="\" horiz-adv-x="653" d="M43 1499q-11 37 20 37h29q31 0 37 -20l481 -1655q11 -37 -18 -37h-31q-29 0 -35 20z" />
<glyph unicode="]" horiz-adv-x="598" d="M82 -279q0 31 31 31h190v1673h-190q-31 0 -31 31v19q0 30 31 30h219h2h28q31 0 31 -30v-1772q0 -31 -31 -31h-28h-2h-219q-31 0 -31 31v18z" />
<glyph unicode="^" horiz-adv-x="831" d="M94 731l281 725q8 19 26 19h29q19 0 27 -19l280 -725q5 -11 -0.5 -18.5t-17.5 -7.5h-45q-23 0 -29 18l-229 608l-230 -608q-9 -18 -28 -18h-45q-12 0 -17.5 8t-1.5 18z" />
<glyph unicode="_" horiz-adv-x="1085" d="M61 -199q0 31 31 31h901q31 0 31 -31v-4q0 -30 -31 -30h-901q-31 0 -31 30v4z" />
<glyph unicode="`" horiz-adv-x="374" d="M23 1372q-5 14 4 29l20 33q19 31 51 10l246 -170q19 -13 6 -39l-4 -8q-15 -26 -37 -15l-266 138q-15 8 -20 22z" />
<glyph unicode="a" horiz-adv-x="1019" d="M92 285q0 79 31 139t85.5 95.5t124 53t152.5 17.5q55 0 295 -10v108q0 52 -7 89t-26.5 70.5t-54 54t-90 32.5t-133.5 12q-67 0 -136.5 -23t-115.5 -49q-33 -18 -51 15l-2 4q-6 12 -2.5 26t16.5 21q43 25 71 38.5t98.5 29.5t154.5 16q189 0 277.5 -70.5t88.5 -248.5v-453 q0 -110 21 -221q1 -4 1 -7q0 -10 -7 -16q-9 -8 -25 -8h-6q-20 0 -41.5 37.5t-24.5 95.5l-2 51q-76 -78 -179.5 -141t-207.5 -63q-152 0 -228.5 73t-76.5 232zM182 285q0 -114 55 -171t179 -57q92 0 189 64.5t175 146.5v236q-196 8 -295 8q-138 0 -220.5 -60.5t-82.5 -166.5z " />
<glyph unicode="b" horiz-adv-x="1112" d="M143 31v1474q0 31 31 31h27q30 0 30 -31v-667q24 28 55 54.5t82 59t121.5 52.5t147.5 20q94 0 164.5 -33.5t111.5 -84.5t66 -123.5t33 -139t8 -141.5q0 -245 -136.5 -383.5t-367.5 -138.5q-130 0 -342 20q-31 3 -31 31zM231 72q184 -15 287 -15q193 0 302.5 115 t109.5 330q0 44 -2.5 82t-10.5 85t-21.5 84.5t-38 74.5t-57.5 62t-81.5 40.5t-108.5 15.5q-81 0 -162.5 -35t-129 -72.5t-87.5 -80.5v-686z" />
<glyph unicode="c" horiz-adv-x="958" d="M92 504q0 116 26 207t68.5 149t102 95.5t122.5 53t134 15.5q92 0 152.5 -24t123.5 -74q9 -7 11.5 -18.5t-5.5 -24.5l-10 -15q-18 -28 -47 -6q-98 84 -219 84q-181 0 -275 -117.5t-94 -324.5q0 -208 94 -326.5t275 -118.5q127 0 248 117q25 25 45 0l16 -20q5 -6 5 -13 q0 -13 -17 -30q-133 -133 -298 -133h-5q-71 1 -134 17t-122.5 54.5t-102 96.5t-68.5 149t-26 207z" />
<glyph unicode="d" horiz-adv-x="1132" d="M92 502q0 247 127 384.5t356 137.5q115 0 306 -14v495q0 31 30 31h27q31 0 31 -31v-1253q0 -115 20 -221q1 -4 1 -7q0 -10 -7 -16q-9 -8 -25 -8h-6q-20 0 -41 38t-24 95l-4 74q-25 -32 -57.5 -64.5t-85 -72.5t-122.5 -65t-143 -25q-94 0 -164.5 33.5t-111.5 84.5 t-66 123.5t-33 139t-8 141.5zM182 502q0 -44 2.5 -82t10.5 -85t21.5 -84.5t38 -75t57.5 -62.5t81.5 -40.5t108.5 -15.5q51 0 109 23.5t109.5 61.5t90 73t70.5 70v647q-186 14 -308 14q-191 0 -291 -113t-100 -331z" />
<glyph unicode="e" horiz-adv-x="1075" d="M92 502q0 255 117 388.5t328 133.5q446 0 446 -485v-4q0 -31 -21 -50.5t-67 -19.5h-713q9 -215 113 -313q101 -96 282 -95h11q157 2 317 127q18 13 39 -22l8 -12q11 -19 -18 -39q-184 -131 -379 -131q-67 0 -130 15.5t-124.5 54t-107 96.5t-73.5 149.5t-28 206.5z M182 539h711q-3 73 -14 131.5t-36.5 111t-64.5 88t-99.5 56t-139.5 20.5q-169 0 -259.5 -98.5t-97.5 -308.5z" />
<glyph unicode="f" horiz-adv-x="675" d="M31 961v26l170 12v207q0 164 56.5 247t191.5 83q80 0 196 -43q1 0 5 -2l5 -2.5t5 -2t5 -3t4 -3.5t3.5 -3.5t1.5 -4t1 -5t-1 -5.5l-4 -14q-5 -21 -12 -29.5t-19 -3.5q-37 17 -85 30t-77 13q-115 0 -151.5 -58t-36.5 -226v-170h280q31 0 31 -31v-12q0 -31 -31 -31h-280 v-899q0 -31 -31 -31h-27q-30 0 -30 31v899h-140q-30 0 -30 31z" />
<glyph unicode="g" horiz-adv-x="1112" d="M92 502q0 247 127 384.5t356 137.5q151 0 363 -20q31 -3 31 -31v-838q0 -245 -52 -385.5t-161 -201t-297 -60.5q-133 0 -287 49q-34 10 -29 31l4 18q7 41 31 33q5 -1 40 -11t54.5 -15t52.5 -12.5t60.5 -11t50.5 -3.5q166 0 261.5 48t139.5 158.5t44 303.5v129 q-26 -33 -58.5 -65t-85 -71.5t-121 -64t-141.5 -24.5q-94 0 -164.5 33.5t-111.5 84.5t-66 123.5t-33 139t-8 141.5zM182 502q0 -53 3.5 -97t14 -98.5t33 -96t56.5 -78t89 -56t126 -19.5q51 0 108.5 23.5t108.5 61.5t89.5 73t70.5 70v647q-186 14 -308 14q-191 0 -291 -113 t-100 -331z" />
<glyph unicode="h" horiz-adv-x="1085" d="M143 31v1474q0 31 31 31h27q30 0 30 -31v-671q132 190 367 190q61 0 108.5 -9t93.5 -34.5t75.5 -68.5t48 -115t18.5 -170v-596q0 -31 -31 -31h-26q-31 0 -31 31v512q0 63 -0.5 94t-6 83t-15.5 77.5t-30 59.5t-49.5 49.5t-74 27.5t-103.5 12t-114 -19.5t-98 -53t-74.5 -67 t-57.5 -71.5v-704q0 -31 -30 -31h-27q-31 0 -31 31z" />
<glyph unicode="i" horiz-adv-x="374" d="M121 1378q0 32 17.5 49t47.5 17t49 -17.5t19 -48.5q0 -61 -68 -61q-65 0 -65 61zM143 31q0 -31 31 -31h27q30 0 30 31v942q0 31 -30 31h-27q-31 0 -31 -31v-942z" />
<glyph unicode="j" horiz-adv-x="409" d="M-184 -446l2 12q7 41 30 33q2 -1 23 -7t27 -8t25.5 -6.5t31 -6t29 -3.5t34.5 -2q66 0 97.5 20.5t46 79.5t14.5 182v1125q0 31 31 31h26q31 0 31 -31v-1178q0 -160 -44.5 -233.5t-166.5 -73.5q-115 0 -209 35q-30 13 -28 31zM150 1380q0 31 19.5 47.5t49.5 16.5 q31 0 50.5 -16.5t19.5 -47.5q0 -32 -19.5 -47.5t-50.5 -15.5q-30 0 -49.5 15.5t-19.5 47.5z" />
<glyph unicode="k" horiz-adv-x="1046" d="M143 31v1474q0 31 31 31h27q30 0 30 -31v-1097l566 575q18 21 37 21h34q19 0 26.5 -11t-5.5 -26l-408 -424l496 -506q8 -8 8 -16q-1 -5 -3 -9q-8 -12 -26 -12h-41q-19 0 -36 20l-459 476l-189 -193v-272q0 -31 -30 -31h-27q-31 0 -31 31z" />
<glyph unicode="l" horiz-adv-x="507" d="M137 303v1202q0 31 31 31h27q30 0 30 -31v-1151q0 -176 10.5 -235.5t57.5 -59.5q8 0 16.5 1t14.5 2t14.5 3.5t13 4t14.5 6t14 6.5l16 8l16 8q16 7 24 -16l10 -31q1 -4 1 -7q0 -6 -4 -11q-7 -7 -21 -15q-3 -1 -4 -2q-19 -10 -60 -23t-75 -13q-41 0 -68 12.5t-42.5 33 t-23.5 65t-10 89t-2 123.5z" />
<glyph unicode="m" horiz-adv-x="1656" d="M143 31v942q0 31 31 31h2q55 0 55 -113v-41q110 174 318 174q109 0 190 -40.5t113 -121.5q79 162 338 162q56 0 102 -11t88 -38.5t70.5 -71.5t45.5 -114t17 -162v-596q0 -31 -30 -31h-27q-31 0 -31 31v532q0 73 -5.5 126.5t-22 104.5t-44.5 82.5t-74.5 50.5t-111.5 19 q-203 0 -295 -174v-22v-719q0 -31 -30 -31h-27q-31 0 -31 31v635q0 65 -11.5 113t-39.5 87t-80 59.5t-127 20.5q-172 0 -295 -207v-708q0 -31 -30 -31h-27q-31 0 -31 31z" />
<glyph unicode="n" horiz-adv-x="1085" d="M143 31v942q0 31 31 31h2q55 0 55 -113v-57q132 190 367 190q61 0 108.5 -9t93.5 -34.5t75.5 -68.5t48 -115t18.5 -170v-596q0 -31 -31 -31h-26q-31 0 -31 31v512q0 63 -0.5 94t-6 83t-15.5 77.5t-30 59.5t-49.5 49.5t-74 27.5t-103.5 12t-114 -19.5t-98 -53t-74.5 -67 t-57.5 -71.5v-704q0 -31 -30 -31h-27q-31 0 -31 31z" />
<glyph unicode="o" d="M92 502q0 522 467 522q222 0 344.5 -128.5t122.5 -393.5q0 -249 -125 -385.5t-342 -136.5t-342 136.5t-125 385.5zM182 502q0 -221 97 -333t280 -112t280 112t97 333q0 222 -97 333t-280 111t-280 -111t-97 -333z" />
<glyph unicode="p" horiz-adv-x="1112" d="M143 -481v1454q0 31 31 31h2q55 0 55 -113v-53q24 28 55 54.5t82 59t121.5 52.5t147.5 20q94 0 164.5 -33.5t111.5 -84.5t66 -123.5t33 -139t8 -141.5q0 -245 -136.5 -383.5t-367.5 -138.5q-110 0 -285 14v-475q0 -31 -30 -31h-27q-31 0 -31 31zM231 72q184 -15 287 -15 q193 0 302.5 115t109.5 330q0 44 -2.5 82t-10.5 85t-21.5 84.5t-38 74.5t-57.5 62t-81.5 40.5t-108.5 15.5q-81 0 -162.5 -35t-129 -72.5t-87.5 -80.5v-686z" />
<glyph unicode="q" horiz-adv-x="1112" d="M92 502q0 245 136.5 383.5t367.5 138.5q130 0 342 -20q31 -3 31 -31v-1454q0 -31 -31 -31h-27q-30 0 -30 31v647q-24 -28 -55 -54.5t-82 -59t-121.5 -52.5t-147.5 -20q-94 0 -164.5 33.5t-111.5 84.5t-66 123.5t-33 139t-8 141.5zM182 502q0 -44 2.5 -82t10.5 -85 t21.5 -84.5t38 -75t57.5 -62.5t81.5 -40.5t108.5 -15.5q62 0 123 19t110 50.5t83.5 60t62.5 59.5v686q-171 14 -287 14q-193 0 -302.5 -114.5t-109.5 -329.5z" />
<glyph unicode="r" horiz-adv-x="600" d="M143 31v942q0 31 31 31h2q55 0 55 -113v-27q123 108 287 156q9 3 16 3q8 0 14 -4q12 -7 11 -24l-2 -37q-1 -14 -8 -20.5t-23 -9.5q-295 -67 -295 -189v-708q0 -31 -30 -31h-27q-31 0 -31 31z" />
<glyph unicode="s" horiz-adv-x="813" d="M100 123l13 18q17 28 45 6q37 -32 61 -48t66.5 -29t99.5 -13q116 0 181 54t65 129q0 37 -11 68.5t-23.5 51t-40 40.5t-43 30t-50.5 26.5l-45 22.5q-15 8 -50 27t-53 28.5t-49 28.5t-48 33t-39.5 35t-33.5 40.5t-19.5 44t-8.5 50.5q0 118 76 188t227 70q80 0 126.5 -10.5 t106.5 -42.5q10 -6 12 -18.5t-6 -24.5l-12 -21q-13 -21 -43 -6q-48 26 -83 35.5t-93 9.5q-105 0 -163 -46.5t-58 -123.5q0 -34 17 -63.5t52.5 -55.5t62 -41t74.5 -38t60 -29q44 -23 66.5 -36t57.5 -36t52.5 -43t36.5 -49t27 -64t8 -77q0 -110 -93.5 -187t-238.5 -77 q-71 0 -125 14.5t-82.5 32t-75.5 53.5q-14 10 -14 23q0 9 8 20z" />
<glyph unicode="t" horiz-adv-x="727" d="M51 963v24l150 12v183v10.5v11t0.5 10.5t2.5 10.5t5 8t8 6.5l45 23q9 4 14 4q4 0 7 -2q6 -5 6 -25v-235h280q31 0 31 -31v-10q0 -31 -31 -31h-280v-592q0 -54 1 -87t4 -67t10 -52.5t17 -35.5t26.5 -24.5t38.5 -12t52 -4.5q19 0 38.5 2t33.5 4t32.5 6.5t27 7t27.5 8.5 t24 7q12 4 18.5 -4.5t11.5 -28.5l2 -8q4 -17 -28 -31q-108 -40 -224 -40q-45 0 -78 8.5t-55 27.5t-35.5 42t-20.5 61.5t-9 75.5t-2 92v645h-119q-31 0 -31 31z" />
<glyph unicode="u" horiz-adv-x="1079" d="M137 377v596q0 31 31 31h27q30 0 30 -31v-492q0 -90 2.5 -138.5t17.5 -112.5t44 -95.5t84.5 -54.5t136.5 -23q180 0 317 187v729q0 31 31 31h27q30 0 30 -31v-721q0 -110 21 -221q1 -4 1 -7q0 -10 -7 -16q-9 -8 -25 -8h-6q-20 0 -41 38t-24 95v17q-137 -170 -363 -170 q-162 0 -248 92.5t-86 304.5z" />
<glyph unicode="v" horiz-adv-x="983" d="M63 969q-3 7 -3 13q0 7 4 12q7 10 24 10h27q26 0 35 -25l342 -891l342 891q9 25 34 25h27q17 0 24 -10q4 -5 4 -12q0 -6 -3 -13l-371 -944q-9 -25 -35 -25h-45q-26 0 -35 25z" />
<glyph unicode="w" horiz-adv-x="1435" d="M63 969q-3 7 -3 13q0 7 4 12q7 10 24 10h27q26 0 35 -25l319 -893l207 584l-111 299q-6 15 1 25t24 10h26q26 0 35 -25l318 -887l317 887q9 25 35 25h27q18 0 24 -10q3 -5 3 -12q0 -6 -3 -13l-346 -944q-9 -25 -35 -25h-45q-26 0 -35 25l-196 534l-189 -534 q-9 -25 -34 -25h-48q-25 0 -34 25z" />
<glyph unicode="x" horiz-adv-x="942" d="M62 11q-2 3 -2 7q0 8 8 19l356 471l-342 459q-11 15 -4.5 26t26.5 11h29q24 0 39 -21l309 -418l305 418q15 21 37 21h31q19 0 25 -11q2 -4 2 -8q0 -8 -7 -18l-339 -473l337 -457q7 -10 7 -18q0 -4 -2 -8q-6 -11 -25 -11h-31q-23 0 -37 20l-309 416l-321 -416 q-14 -20 -35 -20h-33q-19 0 -24 11z" />
<glyph unicode="y" horiz-adv-x="995" d="M63 969q-3 7 -3 13q0 7 4 12q7 10 24 10h27q26 0 35 -25l350 -901l344 897q10 29 33 29h26q18 0 27 -9q4 -5 4 -13q0 -5 -2 -11l-557 -1448q-12 -35 -45 -35h-19q-33 0 -24 35l182 477h-4q-26 0 -35 25z" />
<glyph unicode="z" horiz-adv-x="921" d="M92 62q0 11 0.5 17t7.5 17.5t9.5 15t15.5 21.5l592 799h-549q-31 0 -31 31v10q0 31 31 31h631q30 0 30 -31v-2q0 -15 -14 -37l-629 -862h607q30 0 30 -31v-10q0 -31 -30 -31h-639q-54 0 -60 37q-2 14 -2 25z" />
<glyph unicode="{" horiz-adv-x="626" d="M92 582v16q0 31 31 31h18q62 0 85.5 43.5t23.5 167.5v362q0 94 11.5 155.5t35 93t51.5 43t70 11.5h55q31 0 31 -30v-17q0 -31 -31 -31h-27q-44 0 -65.5 -19t-32 -75t-10.5 -170v-383q0 -116 -78 -190q78 -78 78 -193v-383q0 -114 10.5 -170t32 -75t65.5 -19h27 q31 0 31 -31v-16q0 -31 -31 -31h-55q-42 0 -70 11.5t-51.5 43t-35 93t-11.5 155.5v363q0 123 -23.5 168t-85.5 45h-18q-31 0 -31 31z" />
<glyph unicode="|" horiz-adv-x="487" d="M205 -145v1650q0 31 31 31h16q31 0 31 -31v-1650q0 -31 -31 -31h-16q-31 0 -31 31z" />
<glyph unicode="}" horiz-adv-x="626" d="M123 -281q0 31 31 31h26q44 0 65.5 18.5t32.5 75t11 170.5v383q0 115 78 193q-78 74 -78 190v383q0 114 -11 170.5t-32.5 75t-65.5 18.5h-26q-31 0 -31 31v17q0 30 31 30h55q42 0 70 -11.5t51.5 -43t35 -93t11.5 -155.5v-362q0 -124 23 -167.5t85 -43.5h19q31 0 31 -31 v-16q0 -31 -31 -31h-19q-62 0 -85 -44.5t-23 -168.5v-363q0 -94 -11.5 -155.5t-35 -93t-51.5 -43t-70 -11.5h-55q-31 0 -31 31v16z" />
<glyph unicode="~" horiz-adv-x="1064" d="M174 475q-19 27 0 43q98 84 193 98q48 8 118.5 -9.5t132.5 -39.5t80 -22q75 0 148 67q26 23 43 -2l4 -6q14 -25 0 -41q-43 -46 -82.5 -68.5t-91.5 -29.5q-43 -7 -115 11t-137.5 39.5t-85.5 21.5q-75 0 -158 -72q-28 -22 -45 4z" />
<glyph unicode="&#xa1;" horiz-adv-x="376" d="M121 899q0 64 67 64q68 0 68 -64q0 -29 -19.5 -45t-48.5 -16t-48 16t-19 45zM141 -481q0 -31 31 -31h35q31 0 31 31l-11 1085q0 31 -30 31h-15q-30 0 -30 -31z" />
<glyph unicode="&#xa2;" horiz-adv-x="958" d="M92 504q0 126 29.5 222t81.5 155.5t115.5 92.5t140.5 44v143q0 31 30 31h27q31 0 31 -31v-137q91 0 151 -24t123 -74q9 -7 11.5 -18.5t-5.5 -24.5l-10 -15q-18 -28 -47 -6q-98 84 -219 84h-4v-887h4q127 0 248 117q25 25 45 0l16 -20q14 -17 -12 -43q-135 -135 -301 -133 v-138q0 -30 -31 -30h-27q-30 0 -30 30v146q-77 12 -140 45.5t-115.5 92.5t-82 155.5t-29.5 222.5zM182 504q0 -178 70.5 -292t206.5 -144v870q-136 -29 -206.5 -142.5t-70.5 -291.5z" />
<glyph unicode="&#xa3;" horiz-adv-x="983" d="M92 31v8q0 31 31 31h4q60 0 84 43.5t25 158.5v11v415h-107q-31 0 -31 31v12q0 31 31 31h107v291q0 80 13 136.5t46 102.5t96 68.5t158 22.5q148 0 264 -43q31 -13 29 -31l-2 -16q-2 -18 -10 -27.5t-21 -5.5q-6 2 -39 12.5t-54 16t-63 11t-88 5.5q-77 0 -120 -10t-72 -42 t-39 -86t-10 -147v-258h321q31 0 31 -31v-12q0 -31 -31 -31h-321v-467v-2q0 -98 -41 -155h546q31 0 31 -31v-12q0 -31 -31 -31h-706q-17 0 -24 6t-7 25z" />
<glyph unicode="&#xa4;" horiz-adv-x="1093" d="M102 305l119 121q-92 112 -92 264q0 149 92 264l-117 121q-21 24 -2 43l17 17q23 23 43 2l121 -123q114 86 264 86t262 -88l123 123q21 25 43 0l14 -17q20 -25 2 -43l-121 -123q95 -119 95 -262q0 -147 -93 -264l117 -121q21 -24 2 -43l-16 -16q-24 -24 -43 -2l-121 123 q-114 -86 -264 -86t-264 86l-121 -121q-9 -11 -21.5 -11.5t-21.5 11.5l-15 16q-21 27 -2 43zM219 690q0 -141 93.5 -236.5t234.5 -95.5t234 95.5t93 236.5q0 142 -92.5 237t-234.5 95t-235 -95t-93 -237z" />
<glyph unicode="&#xa5;" horiz-adv-x="1210" d="M64 1361q6 11 26 11h29q28 0 39 -20l448 -736l447 736q11 20 39 20h28q20 0 26 -11t-3 -26l-490 -792h295q31 0 31 -31v-12q0 -31 -31 -31h-299v-438q0 -31 -31 -31h-26q-31 0 -31 31v438h-297q-31 0 -31 31v12q0 31 31 31h293l-489 792q-10 15 -4 26z" />
<glyph unicode="&#xa6;" horiz-adv-x="487" d="M205 -145v634q0 31 31 31h16q31 0 31 -31v-634q0 -31 -31 -31h-16q-31 0 -31 31zM205 870v635q0 31 31 31h16q31 0 31 -31v-635q0 -30 -31 -30h-16q-31 0 -31 30z" />
<glyph unicode="&#xa7;" horiz-adv-x="1116" d="M145 -195l7 11q8 12 20.5 14t26.5 -8q179 -133 362 -133q82 0 147 29t103.5 76.5t58 102t19.5 111.5q0 32 -10 61t-23.5 50.5t-41 44.5t-47.5 37t-58.5 33.5t-59 29t-64.5 28t-61 25.5q-68 29 -111.5 51t-89 52.5t-71 61.5t-41.5 73.5t-16 93.5q0 159 100 264 q-100 81 -100 207q0 169 109.5 272t281.5 103q97 0 172 -28t166 -93q21 -15 4 -45l-6 -10q-21 -37 -60 -10q-72 54 -133.5 81t-153.5 27q-68 0 -125 -28t-92 -72t-54 -95.5t-19 -101.5q0 -28 11.5 -54.5t28.5 -48t45.5 -43t53 -36.5t62 -33.5t61 -28.5t61 -25.5t51.5 -21.5 q69 -30 111.5 -51.5t87 -52.5t68 -62.5t38.5 -76.5t15 -101q0 -153 -86 -260q86 -80 86 -211q0 -98 -35 -176.5t-95.5 -127t-137.5 -74t-164 -25.5q-106 0 -196 36.5t-199 116.5q-23 17 -7 41zM285 649q0 -28 11.5 -54.5t28.5 -48t45.5 -43t53 -36.5t62 -33.5t61 -28.5 t61 -25.5t51.5 -21.5q116 -51 162 -79q68 85 68 200q0 32 -10 61t-23.5 50.5t-41 44.5t-47.5 37t-58.5 33.5t-59 29t-64.5 28t-61 25.5q-110 48 -151 74q-43 -43 -65.5 -100t-22.5 -113z" />
<glyph unicode="&#xa8;" horiz-adv-x="460" d="M20 1378q0 32 18 49t48 17t49 -17.5t19 -48.5q0 -61 -68 -61q-66 0 -66 61zM307 1378q0 32 18 49t48 17t48.5 -17.5t18.5 -48.5q0 -61 -67 -61q-66 0 -66 61z" />
<glyph unicode="&#xa9;" horiz-adv-x="1789" d="M137 737q0 156 54.5 294.5t151.5 241t240.5 162.5t311.5 60t311.5 -60t240.5 -162.5t151.5 -241t54.5 -294.5t-54.5 -294.5t-151.5 -241t-240.5 -162t-311.5 -59.5t-311.5 59.5t-240.5 162t-151.5 241t-54.5 294.5zM227 739q0 -135 48.5 -259t134.5 -218t212.5 -149.5 t272.5 -55.5q147 0 273.5 55.5t212 149.5t134 218t48.5 259t-48.5 258t-134 216t-212 148.5t-273.5 55.5q-146 0 -272.5 -55.5t-212.5 -148.5t-134.5 -216.5t-48.5 -257.5zM541 737q0 201 95 304.5t269 103.5q150 0 256 -74q14 -14 4 -33l-10 -20q-6 -12 -21.5 -16t-25.5 4 q-38 24 -94 42.5t-109 18.5q-129 0 -201.5 -87t-72.5 -243q0 -161 74 -248.5t221 -87.5q44 0 85.5 16t62 31.5t48.5 40.5q9 9 21 8t20 -12l17 -28q9 -15 -11 -31q-32 -28 -59.5 -46.5t-84 -37.5t-120.5 -18q-76 1 -138 21.5t-114.5 65.5t-82 128t-29.5 198z" />
<glyph unicode="&#xaa;" horiz-adv-x="692" d="M61 1184q0 148 78 229.5t213 81.5q148 0 219 -12q17 -2 17 -19v-432q0 -64 12 -129q3 -18 -18 -18h-13q-20 0 -35.5 21t-21.5 57l-4 22q-20 -23 -45.5 -45t-73 -45t-94.5 -23q-55 0 -97 19.5t-67.5 50.5t-41.5 73.5t-22 83t-6 85.5zM152 1184q0 -234 165 -234 q83 0 183 105v358q-98 4 -150 4q-40 0 -73.5 -11.5t-62.5 -37t-45.5 -72.5t-16.5 -112z" />
<glyph unicode="&#xab;" horiz-adv-x="837" d="M92 512q0 8 8 20l273 388q6 9 18 11t21 -3l10 -6q24 -16 12 -37l-205 -373l205 -373q12 -21 -12 -37l-10 -6q-9 -5 -21 -3t-18 11l-273 388q-8 12 -8 20zM399 512q0 6 9 20l272 388q6 9 18 11t21 -3l10 -6q24 -16 12 -37l-204 -373l204 -373q12 -21 -12 -37l-10 -6 q-9 -5 -21 -3t-18 11l-272 388q-9 14 -9 20z" />
<glyph unicode="&#xac;" horiz-adv-x="1126" d="M143 684v12q0 31 31 31h737q31 0 31 -31v-331q0 -31 -31 -31h-26q-31 0 -31 31v288h-680q-31 0 -31 31z" />
<glyph unicode="&#xad;" horiz-adv-x="675" d="M61 514v12q0 31 31 31h492q30 0 30 -31v-12q0 -31 -30 -31h-492q-31 0 -31 31z" />
<glyph unicode="&#xae;" horiz-adv-x="917" d="M92 1128q0 155 102 261t265 106t264.5 -106t101.5 -261q0 -156 -101 -261t-265 -105t-265.5 105t-101.5 261zM178 1130q0 -123 77 -207.5t204 -84.5q128 0 204 84.5t76 207.5q0 119 -76.5 204t-203.5 85q-126 0 -203.5 -85t-77.5 -204zM324 950v359q0 10 10 10 q66 8 119 8q72 0 113.5 -32.5t41.5 -94.5q0 -87 -78 -115l109 -133q4 -6 2 -10t-8 -4h-76q-11 0 -14 8l-94 125h-3h-38v-121q0 -12 -11 -12h-63q-10 0 -10 12zM408 1147h38q74 0 74 53q0 51 -67 51h-45v-104z" />
<glyph unicode="&#xaf;" horiz-adv-x="614" d="M20 1321v12q0 31 31 31h512q31 0 31 -31v-12q0 -31 -31 -31h-512q-31 0 -31 31z" />
<glyph unicode="&#xb0;" horiz-adv-x="421" d="M20 1399q0 86 47 137t144 51t143.5 -50.5t46.5 -137.5t-46.5 -138t-143.5 -51t-144 51t-47 138zM106 1399q0 -117 105 -117q104 0 104 117t-104 117q-105 0 -105 -117z" />
<glyph unicode="&#xb1;" horiz-adv-x="1126" d="M164 31v12q0 31 31 31h737q31 0 31 -31v-12q0 -31 -31 -31h-737q-31 0 -31 31zM164 612v13q0 30 31 30h325v318q0 31 31 31h27q30 0 30 -31v-318h324q31 0 31 -30v-13q0 -30 -31 -30h-324v-326q0 -31 -30 -31h-27q-31 0 -31 31v326h-325q-31 0 -31 30z" />
<glyph unicode="&#xb2;" horiz-adv-x="634" d="M82 653q-6 43 22 78q47 62 125 157t107 134q62 83 91.5 151t29.5 146q0 68 -41.5 115t-108.5 47q-42 0 -69.5 -5t-43 -11.5t-47.5 -24.5q-21 -11 -34 12l-11 18q-9 14 7 27q26 18 46 29t60.5 20.5t91.5 9.5q105 0 170.5 -62t65.5 -175q0 -90 -32.5 -166t-100.5 -166 q-30 -42 -108 -137.5t-122 -153.5h355q18 0 18 -18v-37q0 -18 -18 -18h-410q-39 0 -43 30z" />
<glyph unicode="&#xb3;" horiz-adv-x="710" d="M84 721l20 31q12 18 27 6q80 -72 178 -72q64 0 105.5 31t57 73t15.5 93q0 68 -45 124t-118 56h-58q-20 0 -20 20v35q0 19 20 19h6q88 0 132.5 55t44.5 121q0 24 -6.5 49t-21 53t-45 46t-73.5 18q-82 0 -151 -49q-17 -11 -27 2l-21 30q-10 15 5 27q85 67 200 67 q101 0 163.5 -66t62.5 -177q0 -128 -115 -199q68 -29 110.5 -86t42.5 -145q0 -133 -68 -204t-196 -71q-133 0 -219 86q-15 15 -6 27z" />
<glyph unicode="&#xb4;" horiz-adv-x="374" d="M25 1235q-13 26 6 39l245 170q13 9 28 7t24 -17l20 -33q9 -15 4 -29t-20 -22l-266 -138q-22 -11 -37 15z" />
<glyph unicode="&#xb6;" horiz-adv-x="974" d="M92 1137q0 91 26.5 158.5t74 105.5t106.5 56t131 18h309q31 0 31 -31v-1925q0 -31 -31 -31h-26q-31 0 -31 31v1878h-195v-1878q0 -31 -30 -31h-27q-31 0 -31 31v1280q-66 4 -120 24.5t-97 59.5t-66.5 103.5t-23.5 150.5z" />
<glyph unicode="&#xb7;" horiz-adv-x="233" d="M49 604q0 30 19.5 47t48.5 17t48 -17t19 -47q0 -32 -18.5 -47.5t-48.5 -15.5t-49 15.5t-19 47.5z" />
<glyph unicode="&#xb8;" horiz-adv-x="374" d="M51 -369q0 27 31 27h53q125 0 125 90q0 56 -36.5 72t-114.5 16h-15q-15 0 -21 9.5t-1 21.5l65 168h99l-66 -121q180 -5 180 -168q0 -48 -17.5 -82.5t-47 -51.5t-58.5 -24.5t-59 -7.5q-64 0 -94 10q-23 8 -23 37v4z" />
<glyph unicode="&#xb9;" horiz-adv-x="544" d="M76 1403q-11 18 8 27l192 108q9 6 25 6h21q18 0 18 -18v-885q0 -18 -18 -18h-48q-20 0 -20 18l4 795l-133 -70q-13 -6 -21 -5t-14 13z" />
<glyph unicode="&#xba;" horiz-adv-x="671" d="M61 1184q0 166 66 238.5t209 72.5q142 0 208 -74t66 -237q0 -312 -274 -312q-275 0 -275 312zM152 1184q0 -127 40 -180.5t144 -53.5t144 53.5t40 180.5t-40 180t-144 53t-144 -53t-40 -180z" />
<glyph unicode="&#xbb;" horiz-adv-x="835" d="M94 139l205 373l-205 373q-12 21 12 37l11 6q9 5 21 3t18 -11l272 -388q8 -12 8 -20t-8 -20l-272 -388q-6 -9 -18 -11t-21 3l-11 6q-24 16 -12 37zM401 139l205 373l-205 373q-12 21 13 37l10 6q9 5 21 3t18 -11l272 -388q8 -12 8 -20t-8 -20l-272 -388q-6 -9 -18 -11 t-21 3l-10 6q-25 16 -13 37z" />
<glyph unicode="&#xbc;" horiz-adv-x="1411" d="M76 1341q-11 18 8 27l192 109q9 6 25 6h21q18 0 18 -19v-884q0 -19 -18 -19h-48q-20 0 -20 19l4 794l-133 -69q-13 -6 -21 -5t-14 13zM123 11q-5 11 6 26l952 1417q15 21 37 21h31q19 0 25 -11t-5 -26l-954 -1418q-13 -20 -35 -20h-33q-19 0 -24 11zM758 263q0 8 6 20 l352 665q10 19 25 13l41 -19q12 -6 14.5 -10.5t-2.5 -11.5l-340 -629h274v219q0 19 19 25l41 14q9 3 13.5 -1.5t4.5 -19.5v-237h105q18 0 18 -19v-34q0 -21 -18 -21h-105v-199q0 -18 -18 -18h-43q-19 0 -19 18v199h-311q-44 0 -51 19q-6 19 -6 27z" />
<glyph unicode="&#xbd;" horiz-adv-x="1452" d="M76 1341q-11 18 8 27l192 109q9 6 25 6h21q18 0 18 -19v-884q0 -19 -18 -19h-48q-20 0 -20 19l4 794l-133 -69q-13 -6 -21 -5t-14 13zM123 11q-5 11 6 26l952 1417q15 21 37 21h31q19 0 25 -11t-5 -26l-954 -1418q-13 -20 -35 -20h-33q-19 0 -24 11zM899 31q-6 42 23 78 q47 62 124.5 156.5t106.5 133.5q62 83 91.5 151t29.5 146q0 68 -41.5 115t-108.5 47q-42 0 -69.5 -5t-42 -11.5t-47.5 -24.5q-22 -11 -35 12l-10 19q-9 14 6 26q26 19 46 29.5t60.5 20.5t91.5 10q105 0 170.5 -62t65.5 -176q0 -90 -32.5 -165.5t-100.5 -165.5 q-30 -42 -108 -137.5t-122 -153.5h355q18 0 18 -19v-37q0 -18 -18 -18h-410q-39 0 -43 31z" />
<glyph unicode="&#xbe;" horiz-adv-x="1564" d="M86 659l20 31q12 18 27 6q79 -71 178 -71q93 0 135.5 58t42.5 138q0 68 -45 124t-118 56h-58q-20 0 -20 21v35q0 18 20 18h6q88 0 132.5 55t44.5 121q0 24 -6.5 49t-21 53t-45 46t-73.5 18q-82 0 -151 -49q-17 -11 -27 2l-21 31q-9 14 5 26q86 68 200 68 q101 0 163.5 -66.5t62.5 -177.5q0 -127 -115 -198q68 -29 110.5 -86.5t42.5 -145.5q0 -132 -67.5 -203t-196.5 -71q-133 0 -219 86q-15 15 -6 26zM275 11q-5 11 6 26l952 1417q15 21 37 21h30q19 0 25 -11t-4 -26l-954 -1418q-13 -20 -35 -20h-33q-19 0 -24 11zM912 263 q0 8 6 20l352 665q9 19 24 13l41 -19q12 -6 14.5 -10t-1.5 -12l-340 -629h274v219q0 19 18 25l41 14q9 3 14 -2t5 -19v-237h104q19 0 19 -19v-34q0 -21 -19 -21h-104v-199q0 -18 -19 -18h-43q-18 0 -18 18v199h-311q-44 0 -51 19q-6 19 -6 27z" />
<glyph unicode="&#xbf;" horiz-adv-x="745" d="M20 -178q0 32 8.5 63t19 55t32 52.5t37 46t45 43.5t43.5 37.5t45 36.5q44 35 69 60.5t50 65t36 91.5t11 123v4l2 125q0 30 31 30h14q31 0 31 -30l2 -125v-4q0 -73 -14 -133.5t-40.5 -104.5t-51 -73t-58.5 -58q-15 -12 -49 -39.5t-51.5 -43t-44 -43.5t-40 -51.5t-24 -57 t-10.5 -70.5q0 -107 67.5 -181.5t208.5 -74.5q76 0 128.5 26t123.5 86q24 19 45 -6l10 -12q18 -22 -6 -43q-45 -39 -68 -57t-60 -38t-78.5 -27t-98.5 -7q-51 0 -98.5 9t-97 32.5t-86 59.5t-60 96t-23.5 137zM387 920q0 63 68 63q67 0 67 -63q0 -30 -19 -46t-48 -16t-48.5 16 t-19.5 46z" />
<glyph unicode="&#xc0;" horiz-adv-x="1257" d="M63 35l502 1415q9 25 35 25h57q26 0 35 -25l502 -1415q6 -15 -1 -25t-24 -10h-41q-25 0 -34 25l-131 383h-668l-131 -383q-9 -25 -35 -25h-41q-17 0 -24 10t-1 25zM324 492h610l-305 899zM373 1845q-5 14 4 29l20 33q9 15 24 17t28 -7l245 -170q19 -13 6 -39l-4 -8 q-14 -25 -37 -14l-266 137q-15 8 -20 22z" />
<glyph unicode="&#xc1;" horiz-adv-x="1257" d="M63 35l502 1415q9 25 35 25h57q26 0 35 -25l502 -1415q6 -15 -1 -25t-24 -10h-41q-25 0 -34 25l-131 383h-668l-131 -383q-9 -25 -35 -25h-41q-17 0 -24 10t-1 25zM324 492h610l-305 899zM559 1710q-13 26 6 39l246 170q32 21 51 -10l21 -33q9 -15 3.5 -29t-20.5 -22 l-266 -137q-23 -11 -37 14z" />
<glyph unicode="&#xc2;" horiz-adv-x="1257" d="M63 35l502 1415q9 25 35 25h57q26 0 35 -25l502 -1415q6 -15 -1 -25t-24 -10h-41q-25 0 -34 25l-131 383h-668l-131 -383q-9 -25 -35 -25h-41q-17 0 -24 10t-1 25zM324 492h610l-305 899zM354 1710q-13 26 6 39l246 170q6 6 15 6q2 2 8 2t8 -2q8 0 14 -6l246 -170 q19 -13 6 -39l-4 -8q-14 -25 -37 -14l-233 120l-234 -120q-23 -11 -37 14z" />
<glyph unicode="&#xc3;" horiz-adv-x="1257" d="M63 35l502 1415q9 25 35 25h57q26 0 35 -25l502 -1415q6 -15 -1 -25t-24 -10h-41q-25 0 -34 25l-131 383h-668l-131 -383q-9 -25 -35 -25h-41q-17 0 -24 10t-1 25zM322 1704q-19 27 0 43q98 85 192 98q47 8 98 -9.5t92 -39.5t60 -22q74 0 147 67q26 23 43 -2l4 -6 q14 -25 0 -41q-43 -46 -82.5 -68.5t-91.5 -29.5q-43 -7 -94.5 10.5t-96 39t-65.5 21.5q-75 0 -157 -71q-28 -22 -45 4zM324 492h610l-305 899z" />
<glyph unicode="&#xc4;" horiz-adv-x="1257" d="M63 35l502 1415q9 25 35 25h57q26 0 35 -25l502 -1415q6 -15 -1 -25t-24 -10h-41q-25 0 -34 25l-131 383h-668l-131 -383q-9 -25 -35 -25h-41q-17 0 -24 10t-1 25zM324 492h610l-305 899zM420 1747q0 32 17.5 48.5t47.5 16.5t49 -17t19 -48q0 -61 -68 -61q-65 0 -65 61z M707 1747q0 32 17.5 48.5t47.5 16.5t49 -17t19 -48q0 -61 -68 -61q-65 0 -65 61z" />
<glyph unicode="&#xc5;" horiz-adv-x="1257" d="M63 35l502 1415q9 25 35 25h57q26 0 35 -25l502 -1415q6 -15 -1 -25t-24 -10h-41q-25 0 -34 25l-131 383h-668l-131 -383q-9 -25 -35 -25h-41q-17 0 -24 10t-1 25zM324 492h610l-305 899zM401 1769q0 105 62.5 163.5t165.5 58.5q106 0 166.5 -58t60.5 -164 q0 -221 -227 -221q-107 0 -167.5 53.5t-60.5 167.5zM483 1769q0 -151 146 -151q145 0 145 151q0 76 -40 114t-105 38q-64 0 -105 -38t-41 -114z" />
<glyph unicode="&#xc6;" horiz-adv-x="1761" d="M63 35l732 1415q6 10 9.5 14t9.5 7.5t15 3.5h756q31 0 31 -31v-23q0 -30 -31 -30h-659l51 -584h536q31 0 31 -31v-22q0 -31 -31 -31h-528l55 -639h568q30 0 30 -31v-22q0 -31 -30 -31h-635q-28 0 -31 31l-33 377h-549l-196 -383q-12 -25 -35 -25h-41q-17 0 -24.5 10 t-0.5 25zM403 492h498l-72 831z" />
<glyph unicode="&#xc7;" horiz-adv-x="1200" d="M137 737q0 376 157.5 567t442.5 191q112 0 196 -23.5t161 -76.5q9 -6 11 -17t-3 -20l-19 -33q-7 -14 -22.5 -16t-30.5 8q-149 90 -295 90q-102 0 -185 -33.5t-142 -93.5t-99 -144.5t-59 -184t-19 -214.5q0 -144 30.5 -264t91 -211.5t158.5 -142.5t224 -51q71 0 143 24 t109.5 46.5t93.5 60.5q38 26 56 -4l16 -27q14 -25 -4 -37q-197 -151 -412 -151h-4l-37 -66q181 -5 181 -168q0 -48 -18 -82.5t-47 -51.5t-58 -24.5t-60 -7.5q-64 0 -94 10q-22 7 -22 37v4q0 27 30 27h54q124 0 124 90q0 56 -36.5 72t-114.5 16h-14q-15 0 -21.5 9.5 t-1.5 21.5l47 119q-243 30 -375.5 219t-132.5 532z" />
<glyph unicode="&#xc8;" horiz-adv-x="1024" d="M205 31v1413q0 31 31 31h612q31 0 31 -31v-23q0 -30 -31 -30h-551v-584h479q31 0 31 -31v-22q0 -31 -31 -31h-479v-639h573q31 0 31 -31v-22q0 -31 -31 -31h-634q-31 0 -31 31zM303.5 1845q-5.5 14 3.5 29l21 33q19 31 51 10l246 -170q19 -13 6 -39l-4 -8 q-14 -25 -37 -14l-266 137q-15 8 -20.5 22z" />
<glyph unicode="&#xc9;" horiz-adv-x="1024" d="M205 31v1413q0 31 31 31h612q31 0 31 -31v-23q0 -30 -31 -30h-551v-584h479q31 0 31 -31v-22q0 -31 -31 -31h-479v-639h573q31 0 31 -31v-22q0 -31 -31 -31h-634q-31 0 -31 31zM457 1710q-13 26 6 39l246 170q32 21 51 -10l20 -33q9 -15 4 -29t-20 -22l-266 -137 q-23 -11 -37 14z" />
<glyph unicode="&#xca;" horiz-adv-x="1024" d="M205 31v1413q0 31 31 31h612q31 0 31 -31v-23q0 -30 -31 -30h-551v-584h479q31 0 31 -31v-22q0 -31 -31 -31h-479v-639h573q31 0 31 -31v-22q0 -31 -31 -31h-634q-31 0 -31 31zM256 1710q-13 26 6 39l246 170q6 6 14 6q2 2 8 2q7 0 9 -2q8 0 14 -6l246 -170q19 -13 6 -39 l-4 -8q-14 -25 -37 -14l-234 120l-233 -120q-23 -11 -37 14z" />
<glyph unicode="&#xcb;" horiz-adv-x="1024" d="M205 31v1413q0 31 31 31h612q31 0 31 -31v-23q0 -30 -31 -30h-551v-584h479q31 0 31 -31v-22q0 -31 -31 -31h-479v-639h573q31 0 31 -31v-22q0 -31 -31 -31h-634q-31 0 -31 31zM338 1747q0 32 17.5 48.5t47.5 16.5t49 -17t19 -48q0 -61 -68 -61q-65 0 -65 61zM625 1747 q0 32 17.5 48.5t47.5 16.5t49 -17t19 -48q0 -61 -68 -61q-65 0 -65 61z" />
<glyph unicode="&#xcc;" horiz-adv-x="501" d="M-8 1845q-5 14 4 29l20 33q9 15 24 17t28 -7l245 -170q19 -13 6 -39l-4 -8q-14 -25 -36 -14l-267 137q-15 8 -20 22zM205 31v1413q0 31 31 31h30q31 0 31 -31v-1413q0 -31 -31 -31h-30q-31 0 -31 31z" />
<glyph unicode="&#xcd;" horiz-adv-x="501" d="M184 1710q-13 26 6 39l246 170q32 21 51 -10l21 -33q9 -15 4 -29t-20 -22l-267 -137q-23 -11 -37 14zM205 31v1413q0 31 31 31h30q31 0 31 -31v-1413q0 -31 -31 -31h-30q-31 0 -31 31z" />
<glyph unicode="&#xce;" horiz-adv-x="501" d="M-26.5 1731q1.5 12 10.5 18l245 170q6 6 15 6q2 2 8 2t8 -2q8 0 14 -6l246 -170q19 -13 6 -39l-4 -8q-14 -25 -37 -14l-233 120l-234 -120q-22 -11 -36 14l-5 8q-5 9 -3.5 21zM205 31v1413q0 31 31 31h30q31 0 31 -31v-1413q0 -31 -31 -31h-30q-31 0 -31 31z" />
<glyph unicode="&#xcf;" horiz-adv-x="501" d="M41 1747q0 32 17.5 48.5t47.5 16.5t49 -17t19 -48q0 -61 -68 -61q-65 0 -65 61zM205 31v1413q0 31 31 31h30q31 0 31 -31v-1413q0 -31 -31 -31h-30q-31 0 -31 31zM328 1747q0 32 17.5 48.5t47.5 16.5t49 -17t19 -48q0 -61 -68 -61q-65 0 -65 61z" />
<glyph unicode="&#xd0;" horiz-adv-x="1368" d="M94 748v12q0 31 31 31h80v653q0 28 31 31q190 20 296 20q323 0 511 -197.5t188 -560.5t-187.5 -560t-511.5 -197q-111 0 -296 20q-31 3 -31 31v686h-80q-31 0 -31 31zM297 78q133 -10 235 -10q295 0 450 176.5t155 492.5t-155 493t-450 177q-130 0 -235 -10v-606h340 q31 0 31 -31v-12q0 -31 -31 -31h-340v-639z" />
<glyph unicode="&#xd1;" horiz-adv-x="1390" d="M205 31v1413q0 31 31 31h10q24 0 37 -19l823 -1266l-12 1254q0 31 30 31h31q31 0 31 -31v-1413q0 -31 -31 -31h-8q-25 0 -37 18l-825 1268l12 -1255q0 -31 -31 -31h-30q-31 0 -31 31zM373 1704q-19 27 0 43q98 85 192 98q47 8 98 -9.5t92 -39.5t60 -22q75 0 148 67 q26 23 43 -2l4 -6q14 -25 0 -41q-43 -46 -82.5 -68.5t-91.5 -29.5q-43 -7 -94.5 10.5t-96 39t-65.5 21.5q-76 0 -158 -71q-28 -22 -45 4z" />
<glyph unicode="&#xd2;" horiz-adv-x="1517" d="M137 737q0 376 164 567t457 191q291 0 456.5 -191.5t165.5 -566.5q0 -376 -164 -566.5t-458 -190.5q-293 0 -457 191t-164 566zM231 737q0 -317 136 -493t391 -176q257 0 392.5 176t135.5 493t-136 493.5t-392 176.5q-255 0 -391 -176.5t-136 -493.5zM543 1845 q-5 14 4 29l20 33q19 31 51 10l246 -170q19 -13 6 -39l-4 -8q-14 -25 -37 -14l-266 137q-15 8 -20 22z" />
<glyph unicode="&#xd3;" horiz-adv-x="1517" d="M137 737q0 376 164 567t457 191q291 0 456.5 -191.5t165.5 -566.5q0 -376 -164 -566.5t-458 -190.5q-293 0 -457 191t-164 566zM231 737q0 -317 136 -493t391 -176q257 0 392.5 176t135.5 493t-136 493.5t-392 176.5q-255 0 -391 -176.5t-136 -493.5zM647 1710 q-13 26 6 39l246 170q32 21 51 -10l21 -33q9 -15 3.5 -29t-20.5 -22l-266 -137q-23 -11 -37 14z" />
<glyph unicode="&#xd4;" horiz-adv-x="1517" d="M137 737q0 376 164 567t457 191q291 0 456.5 -191.5t165.5 -566.5q0 -376 -164 -566.5t-458 -190.5q-293 0 -457 191t-164 566zM231 737q0 -317 136 -493t391 -176q257 0 392.5 176t135.5 493t-136 493.5t-392 176.5q-255 0 -391 -176.5t-136 -493.5zM481 1710 q-13 26 6 39l246 170q6 6 15 6q2 2 8 2t8 -2q8 0 14 -6l246 -170q19 -13 6 -39l-4 -8q-14 -25 -37 -14l-233 120l-234 -120q-23 -11 -37 14z" />
<glyph unicode="&#xd5;" horiz-adv-x="1517" d="M137 737q0 376 164 567t457 191q291 0 456.5 -191.5t165.5 -566.5q0 -376 -164 -566.5t-458 -190.5q-293 0 -457 191t-164 566zM231 737q0 -317 136 -493t391 -176q257 0 392.5 176t135.5 493t-136 493.5t-392 176.5q-255 0 -391 -176.5t-136 -493.5zM442 1704 q-19 27 0 43q98 84 193 98q47 8 98 -9.5t92 -39.5t60 -22q74 0 147 67q26 23 43 -2l4 -6q14 -25 0 -41q-43 -46 -82.5 -68.5t-91.5 -29.5q-43 -7 -94.5 10.5t-96 39t-65.5 21.5q-75 0 -157 -71q-29 -22 -46 4z" />
<glyph unicode="&#xd6;" horiz-adv-x="1517" d="M137 737q0 376 164 567t457 191q291 0 456.5 -191.5t165.5 -566.5q0 -376 -164 -566.5t-458 -190.5q-293 0 -457 191t-164 566zM231 737q0 -317 136 -493t391 -176q257 0 392.5 176t135.5 493t-136 493.5t-392 176.5q-255 0 -391 -176.5t-136 -493.5zM547 1747 q0 32 17.5 48.5t47.5 16.5t49 -17t19 -48q0 -61 -68 -61q-65 0 -65 61zM834 1747q0 32 17.5 48.5t47.5 16.5t49 -17t19 -48q0 -61 -68 -61q-65 0 -65 61z" />
<glyph unicode="&#xd7;" horiz-adv-x="1126" d="M201 156q-21 21 0 45l303 303l-303 303q-21 24 0 45l14 14q21 22 43 0l305 -303l303 303q22 22 43 0l17 -14q21 -21 0 -45l-303 -303l303 -303q21 -24 0 -45l-17 -15q-21 -21 -43 0l-303 303l-305 -303q-22 -21 -43 0z" />
<glyph unicode="&#xd8;" horiz-adv-x="1517" d="M137 737q0 376 164 567t457 191q261 0 416 -149l86 110q16 19 36 19h50q20 0 25 -11t-7 -26l-127 -162q143 -194 143 -539q0 -376 -164 -566.5t-458 -190.5q-260 0 -416 147l-86 -109q-15 -18 -37 -18h-49q-20 0 -25 11t7 26l127 162q-142 197 -142 538zM231 737 q0 -287 111 -456l772 991q-132 135 -356 135q-255 0 -391 -176.5t-136 -493.5zM401 205q131 -137 357 -137q257 0 392.5 176t135.5 493q0 291 -110 459z" />
<glyph unicode="&#xd9;" horiz-adv-x="1333" d="M164 535v909q0 31 31 31h30q31 0 31 -31v-909q0 -219 100 -343t310 -124q211 0 311 123.5t100 343.5v909q0 31 31 31h31q30 0 30 -31v-909q0 -265 -130 -410t-373 -145t-372.5 144.5t-129.5 410.5zM436.5 1845q-5.5 14 3.5 29l21 33q19 31 51 10l246 -170q19 -13 6 -39 l-4 -8q-14 -25 -37 -14l-266 137q-15 8 -20.5 22z" />
<glyph unicode="&#xda;" horiz-adv-x="1333" d="M164 535v909q0 31 31 31h30q31 0 31 -31v-909q0 -219 100 -343t310 -124q211 0 311 123.5t100 343.5v909q0 31 31 31h31q30 0 30 -31v-909q0 -265 -130 -410t-373 -145t-372.5 144.5t-129.5 410.5zM571.5 1731q1.5 12 10.5 18l245 170q13 9 28 7t24 -17l20 -33 q9 -15 4 -29t-20 -22l-267 -137q-22 -11 -36 14l-5 8q-5 9 -3.5 21z" />
<glyph unicode="&#xdb;" horiz-adv-x="1333" d="M164 535v909q0 31 31 31h30q31 0 31 -31v-909q0 -219 100 -343t310 -124q211 0 311 123.5t100 343.5v909q0 31 31 31h31q30 0 30 -31v-909q0 -265 -130 -410t-373 -145t-372.5 144.5t-129.5 410.5zM393 1710q-13 26 6 39l246 170q6 6 14 6q2 2 9 2q6 0 8 -2q8 0 14 -6 l246 -170q19 -13 6 -39l-4 -8q-14 -25 -37 -14l-233 120l-234 -120q-23 -11 -37 14z" />
<glyph unicode="&#xdc;" horiz-adv-x="1333" d="M164 535v909q0 31 31 31h30q31 0 31 -31v-909q0 -219 100 -343t310 -124q211 0 311 123.5t100 343.5v909q0 31 31 31h31q30 0 30 -31v-909q0 -265 -130 -410t-373 -145t-372.5 144.5t-129.5 410.5zM457 1747q0 32 17.5 48.5t47.5 16.5t49 -17t19 -48q0 -61 -68 -61 q-65 0 -65 61zM743 1747q0 31 18 48t48 17t49 -17t19 -48q0 -61 -68 -61q-66 0 -66 61z" />
<glyph unicode="&#xdd;" horiz-adv-x="1169" d="M64 1464q6 11 26 11h35q27 0 39 -21l422 -706l420 706q12 21 38 21h35q20 0 26 -11t-3 -26l-471 -774v-633q0 -31 -31 -31h-31q-30 0 -30 31v633l-471 774q-10 15 -4 26zM514 1710q-13 26 6 39l246 170q32 21 51 -10l21 -33q9 -15 3.5 -29t-20.5 -22l-266 -137 q-23 -11 -37 14z" />
<glyph unicode="&#xde;" horiz-adv-x="1081" d="M205 31v1413q0 31 31 31h32q31 0 31 -31v-273q169 15 238 15q227 0 344.5 -113t117.5 -315q0 -89 -28 -163t-75 -124.5t-109.5 -85t-131 -50.5t-141.5 -16q-140 0 -215 7v-295q0 -31 -31 -31h-32q-31 0 -31 31zM299 412q82 -4 217 -4q85 0 153.5 22t111.5 57t71.5 82 t40.5 94t12 95q0 51 -11.5 98.5t-39 92t-68.5 77t-104.5 52.5t-142.5 20q-75 0 -240 -15v-671z" />
<glyph unicode="&#xdf;" horiz-adv-x="1079" d="M137 31v1155q0 167 71 258.5t210 91.5q83 0 144 -24t96 -66.5t51 -94.5t16 -116q0 -19 -3 -39t-6.5 -35t-12 -36t-13.5 -32t-17 -32t-15.5 -27.5t-17.5 -28.5t-15 -24q-11 -19 -30.5 -47.5t-28.5 -43.5t-17 -37t-8 -44q0 -23 11.5 -42.5t36.5 -37.5t48.5 -31.5 t62.5 -34.5t64 -36q49 -29 83 -55t69 -64.5t53 -88t18 -108.5q0 -331 -303 -331q-79 0 -146.5 32.5t-148.5 100.5q-21 16 -6 43l10 16q17 28 45 6q73 -63 126 -92t116 -29q59 0 102.5 20t68 55.5t35.5 79t11 95.5q0 45 -16 83.5t-47.5 69.5t-63 53t-76.5 48 q-12 7 -43.5 25.5t-45 26.5t-40 25t-38.5 27.5t-29.5 28.5t-25.5 33t-14.5 35t-6.5 41q0 26 13.5 60.5t28.5 59.5t41.5 66t36.5 58q29 49 38 65.5t17 43t9 58.5q1 71 -18.5 122t-52 76t-64.5 35.5t-66 10.5q-110 0 -159.5 -72.5t-49.5 -211.5v-1143q0 -31 -30 -31h-27 q-31 0 -31 31z" />
<glyph unicode="&#xe0;" horiz-adv-x="1019" d="M92 285q0 79 31 139t85.5 95.5t124 53t152.5 17.5q55 0 295 -10v108q0 52 -7 89t-26.5 70.5t-54 54t-90 32.5t-133.5 12q-67 0 -136.5 -23t-115.5 -49q-33 -18 -51 15l-2 4q-6 12 -2.5 26t16.5 21q43 25 71 38.5t98.5 29.5t154.5 16q189 0 277.5 -70.5t88.5 -248.5v-453 q0 -110 21 -221q3 -14 -6 -22.5t-25 -8.5h-6q-20 0 -41.5 37.5t-24.5 95.5l-2 51q-76 -78 -179.5 -141t-207.5 -63q-152 0 -228.5 73t-76.5 232zM182 285q0 -114 55 -171t179 -57q92 0 189 64.5t175 146.5v236q-196 8 -295 8q-138 0 -220.5 -60.5t-82.5 -166.5zM275 1372 q-5 14 4 29l20 33q19 31 51 10l246 -170q19 -13 6 -39l-4 -8q-15 -26 -37 -15l-266 138q-15 8 -20 22z" />
<glyph unicode="&#xe1;" horiz-adv-x="1019" d="M92 285q0 79 31 139t85.5 95.5t124 53t152.5 17.5q55 0 295 -10v108q0 52 -7 89t-26.5 70.5t-54 54t-90 32.5t-133.5 12q-67 0 -136.5 -23t-115.5 -49q-33 -18 -51 15l-2 4q-6 12 -2.5 26t16.5 21q43 25 71 38.5t98.5 29.5t154.5 16q189 0 277.5 -70.5t88.5 -248.5v-453 q0 -110 21 -221q3 -14 -6 -22.5t-25 -8.5h-6q-20 0 -41.5 37.5t-24.5 95.5l-2 51q-76 -78 -179.5 -141t-207.5 -63q-152 0 -228.5 73t-76.5 232zM182 285q0 -114 55 -171t179 -57q92 0 189 64.5t175 146.5v236q-196 8 -295 8q-138 0 -220.5 -60.5t-82.5 -166.5zM383 1235 q-13 26 6 39l246 170q32 21 51 -10l21 -33q9 -15 3.5 -29t-20.5 -22l-266 -138q-22 -11 -37 15z" />
<glyph unicode="&#xe2;" horiz-adv-x="1019" d="M92 285q0 79 31 139t85.5 95.5t124 53t152.5 17.5q55 0 295 -10v108q0 52 -7 89t-26.5 70.5t-54 54t-90 32.5t-133.5 12q-67 0 -136.5 -23t-115.5 -49q-33 -18 -51 15l-2 4q-6 12 -2.5 26t16.5 21q43 25 71 38.5t98.5 29.5t154.5 16q189 0 277.5 -70.5t88.5 -248.5v-453 q0 -110 21 -221q3 -14 -6 -22.5t-25 -8.5h-6q-20 0 -41.5 37.5t-24.5 95.5l-2 51q-76 -78 -179.5 -141t-207.5 -63q-152 0 -228.5 73t-76.5 232zM182 285q0 -114 55 -171t179 -57q92 0 189 64.5t175 146.5v236q-196 8 -295 8q-138 0 -220.5 -60.5t-82.5 -166.5zM219 1235 q-13 26 6 39l246 170q6 6 14 6q2 2 9 2q6 0 8 -2q8 0 14 -6l246 -170q19 -13 6 -39l-4 -8q-15 -26 -37 -15l-233 121l-234 -121q-22 -11 -37 15z" />
<glyph unicode="&#xe3;" horiz-adv-x="1019" d="M92 285q0 79 31 139t85.5 95.5t124 53t152.5 17.5q55 0 295 -10v108q0 52 -7 89t-26.5 70.5t-54 54t-90 32.5t-133.5 12q-67 0 -136.5 -23t-115.5 -49q-33 -18 -51 15l-2 4q-6 12 -2.5 26t16.5 21q43 25 71 38.5t98.5 29.5t154.5 16q189 0 277.5 -70.5t88.5 -248.5v-453 q0 -110 21 -221q3 -14 -6 -22.5t-25 -8.5h-6q-20 0 -41.5 37.5t-24.5 95.5l-2 51q-76 -78 -179.5 -141t-207.5 -63q-152 0 -228.5 73t-76.5 232zM182 285q0 -114 55 -171t179 -57q92 0 189 64.5t175 146.5v236q-196 8 -295 8q-138 0 -220.5 -60.5t-82.5 -166.5zM188 1274 q-19 27 0 43q98 84 193 98q47 8 98 -10t92 -40t60 -22q73 0 147 68q26 23 43 -2l4 -6q14 -25 0 -41q-43 -46 -82.5 -68.5t-91.5 -29.5q-43 -7 -94.5 10.5t-96 39t-65.5 21.5q-75 0 -157 -71q-28 -22 -45 4z" />
<glyph unicode="&#xe4;" horiz-adv-x="1019" d="M92 285q0 79 31 139t85.5 95.5t124 53t152.5 17.5q55 0 295 -10v108q0 52 -7 89t-26.5 70.5t-54 54t-90 32.5t-133.5 12q-67 0 -136.5 -23t-115.5 -49q-33 -18 -51 15l-2 4q-6 12 -2.5 26t16.5 21q43 25 71 38.5t98.5 29.5t154.5 16q189 0 277.5 -70.5t88.5 -248.5v-453 q0 -110 21 -221q3 -14 -6 -22.5t-25 -8.5h-6q-20 0 -41.5 37.5t-24.5 95.5l-2 51q-76 -78 -179.5 -141t-207.5 -63q-152 0 -228.5 73t-76.5 232zM182 285q0 -114 55 -171t179 -57q92 0 189 64.5t175 146.5v236q-196 8 -295 8q-138 0 -220.5 -60.5t-82.5 -166.5zM297 1378 q0 32 17.5 49t47.5 17t49 -17.5t19 -48.5q0 -61 -68 -61q-65 0 -65 61zM584 1378q0 32 17.5 49t47.5 17t49 -17.5t19 -48.5q0 -61 -68 -61q-65 0 -65 61z" />
<glyph unicode="&#xe5;" horiz-adv-x="1019" d="M92 285q0 79 31 139t85.5 95.5t124 53t152.5 17.5q55 0 295 -10v108q0 52 -7 89t-26.5 70.5t-54 54t-90 32.5t-133.5 12q-67 0 -136.5 -23t-115.5 -49q-33 -18 -51 15l-2 4q-6 12 -2.5 26t16.5 21q43 25 71 38.5t98.5 29.5t154.5 16q189 0 277.5 -70.5t88.5 -248.5v-453 q0 -110 21 -221q3 -14 -6 -22.5t-25 -8.5h-6q-20 0 -41.5 37.5t-24.5 95.5l-2 51q-76 -78 -179.5 -141t-207.5 -63q-152 0 -228.5 73t-76.5 232zM182 285q0 -114 55 -171t179 -57q92 0 189 64.5t175 146.5v236q-196 8 -295 8q-138 0 -220.5 -60.5t-82.5 -166.5zM283 1319 q0 105 62 163t165 58q106 0 166.5 -57.5t60.5 -163.5q0 -221 -227 -221q-107 0 -167 53.5t-60 167.5zM365 1319q0 -152 145 -152t145 152q0 76 -40 113.5t-105 37.5q-64 0 -104.5 -37.5t-40.5 -113.5z" />
<glyph unicode="&#xe6;" horiz-adv-x="1763" d="M92 285q0 79 31 139t85.5 95.5t124 53t152.5 17.5q55 0 295 -10v108q0 52 -7 89t-26.5 70.5t-54 54t-90 32.5t-133.5 12q-67 0 -136.5 -23t-115.5 -49q-33 -18 -51 15l-2 4q-6 12 -2.5 26t16.5 21q43 25 71 38.5t98.5 29.5t154.5 16q149 0 235.5 -43.5t116.5 -146.5 q112 190 371 190q102 0 180.5 -25.5t128 -68.5t81 -104t44 -126t12.5 -141v-4q0 -31 -21 -50.5t-67 -19.5h-713q4 -224 108.5 -327.5t297.5 -100.5q157 2 317 127q18 13 39 -22l8 -12q11 -19 -18 -39q-184 -131 -379 -131q-81 0 -154.5 22t-143.5 79t-111 144 q-15 -22 -36 -47t-62.5 -62.5t-88 -66t-113.5 -49t-137 -20.5q-152 0 -228.5 73t-76.5 232zM182 285q0 -114 55 -171t179 -57q44 0 87 10.5t75 24t66 39t54 42t46.5 47t35 41t27.5 36.5q-24 83 -27 192v15q-196 8 -295 8q-138 0 -220.5 -60.5t-82.5 -166.5zM870 559h711 q-3 85 -21.5 151t-57.5 121.5t-108.5 85t-166.5 29.5q-342 0 -357 -387z" />
<glyph unicode="&#xe7;" horiz-adv-x="958" d="M92 504q0 116 26 207t68.5 149t102 95.5t122.5 53t134 15.5q92 0 152.5 -24t123.5 -74q9 -7 11.5 -18.5t-5.5 -24.5l-10 -15q-18 -28 -47 -6q-98 84 -219 84q-181 0 -275 -117.5t-94 -324.5q0 -208 94 -326.5t275 -118.5q127 0 248 117q25 25 45 0l16 -20q14 -17 -12 -43 q-135 -135 -303 -133h-10l-37 -66q180 -5 180 -168q0 -48 -17.5 -82.5t-47 -51.5t-58.5 -24.5t-59 -7.5q-65 0 -95 10q-22 7 -22 37v4q0 27 31 27h53q125 0 125 90q0 24 -8 40.5t-20 26t-33 14.5t-40.5 6t-50.5 1h-14q-15 0 -21.5 9.5t-1.5 21.5l47 123q-74 14 -135 48 t-112 93t-79 154t-28 219z" />
<glyph unicode="&#xe8;" horiz-adv-x="1075" d="M92 502q0 255 117 388.5t328 133.5q446 0 446 -485v-4q0 -31 -21 -50.5t-67 -19.5h-713q9 -214 113 -312.5t293 -95.5q157 2 317 127q18 13 39 -22l8 -12q11 -19 -18 -39q-184 -131 -379 -131q-67 0 -130 15.5t-124.5 54t-107 96.5t-73.5 149.5t-28 206.5zM182 539h711 q-3 73 -14 131.5t-36.5 111t-64.5 88t-99.5 56t-139.5 20.5q-169 0 -259.5 -98.5t-97.5 -308.5zM324 1372q-5 14 4 29l20 33q19 31 51 10l246 -170q19 -13 6 -39l-4 -8q-15 -26 -37 -15l-266 138q-15 8 -20 22z" />
<glyph unicode="&#xe9;" horiz-adv-x="1075" d="M92 502q0 255 117 388.5t328 133.5q446 0 446 -485v-4q0 -31 -21 -50.5t-67 -19.5h-713q9 -214 113 -312.5t293 -95.5q157 2 317 127q18 13 39 -22l8 -12q11 -19 -18 -39q-184 -131 -379 -131q-67 0 -130 15.5t-124.5 54t-107 96.5t-73.5 149.5t-28 206.5zM182 539h711 q-3 73 -14 131.5t-36.5 111t-64.5 88t-99.5 56t-139.5 20.5q-169 0 -259.5 -98.5t-97.5 -308.5zM449 1235q-13 26 6 39l245 170q13 9 28 7t24 -17l20 -33q9 -15 4 -29t-20 -22l-267 -138q-21 -11 -36 15z" />
<glyph unicode="&#xea;" horiz-adv-x="1075" d="M92 502q0 255 117 388.5t328 133.5q446 0 446 -485v-4q0 -31 -21 -50.5t-67 -19.5h-713q9 -214 113 -312.5t293 -95.5q157 2 317 127q18 13 39 -22l8 -12q11 -19 -18 -39q-184 -131 -379 -131q-67 0 -130 15.5t-124.5 54t-107 96.5t-73.5 149.5t-28 206.5zM182 539h711 q-3 73 -14 131.5t-36.5 111t-64.5 88t-99.5 56t-139.5 20.5q-169 0 -259.5 -98.5t-97.5 -308.5zM266 1235q-13 26 6 39l246 170q6 6 14 6q2 2 9 2q6 0 8 -2q8 0 14 -6l246 -170q19 -13 6 -39l-4 -8q-15 -26 -37 -15l-233 121l-234 -121q-22 -11 -37 15z" />
<glyph unicode="&#xeb;" horiz-adv-x="1075" d="M92 502q0 255 117 388.5t328 133.5q446 0 446 -485v-4q0 -31 -21 -50.5t-67 -19.5h-713q9 -214 113 -312.5t293 -95.5q157 2 317 127q18 13 39 -22l8 -12q11 -19 -18 -39q-184 -131 -379 -131q-67 0 -130 15.5t-124.5 54t-107 96.5t-73.5 149.5t-28 206.5zM182 539h711 q-3 73 -14 131.5t-36.5 111t-64.5 88t-99.5 56t-139.5 20.5q-169 0 -259.5 -98.5t-97.5 -308.5zM338 1378q0 32 17.5 49t47.5 17t49 -17.5t19 -48.5q0 -61 -68 -61q-65 0 -65 61zM625 1378q0 32 17.5 49t47.5 17t49 -17.5t19 -48.5q0 -61 -68 -61q-65 0 -65 61z" />
<glyph unicode="&#xec;" horiz-adv-x="522" d="M0 1372q-5 14 4 29l21 33q19 31 51 10l246 -170q19 -13 6 -39l-4 -8q-15 -26 -37 -15l-267 138q-15 8 -20 22zM217 31v942q0 31 31 31h26q31 0 31 -31v-942q0 -31 -31 -31h-26q-31 0 -31 31z" />
<glyph unicode="&#xed;" horiz-adv-x="522" d="M193 1235q-13 26 6 39l245 170q13 9 28 7t24 -17l20 -33q9 -15 4 -29t-20 -22l-267 -138q-21 -11 -36 15zM217 31v942q0 31 31 31h26q31 0 31 -31v-942q0 -31 -31 -31h-26q-31 0 -31 31z" />
<glyph unicode="&#xee;" horiz-adv-x="522" d="M-12 1235q-13 26 6 39l246 170q6 6 14 6q2 2 8 2t8 -2q9 0 15 -6l245 -170q9 -6 10.5 -18t-3.5 -21l-5 -8q-15 -26 -36 -15l-234 121l-233 -121q-22 -11 -37 15zM217 31v942q0 31 31 31h26q31 0 31 -31v-942q0 -31 -31 -31h-26q-31 0 -31 31z" />
<glyph unicode="&#xef;" horiz-adv-x="522" d="M51 1378q0 32 18 49t48 17t48.5 -17.5t18.5 -48.5q0 -61 -67 -61q-66 0 -66 61zM217 31v942q0 31 31 31h26q31 0 31 -31v-942q0 -31 -31 -31h-26q-31 0 -31 31zM338 1378q0 32 17.5 49t47.5 17t49 -17.5t19 -48.5q0 -61 -68 -61q-65 0 -65 61z" />
<glyph unicode="&#xf0;" horiz-adv-x="1060" d="M92 502q0 138 32 240t91.5 163t137.5 90t177 29q189 0 304 -135q-53 193 -175 340l-237 -64q-29 -9 -39 23l-8 29q-7 29 22 36l191 52q-82 79 -180 141q-29 19 -15 41l15 24q18 29 38 17q156 -95 254 -193l170 47q15 4 25.5 -2t13.5 -20l9 -31q7 -31 -21 -37l-125 -32 q102 -130 149.5 -309.5t47.5 -448.5q0 -138 -32 -240t-92 -163t-138 -90t-177 -29t-177 29t-137.5 90t-91.5 163t-32 240zM182 502q0 -447 348 -447q349 0 349 447q0 57 -10 114.5t-35 118t-63 106.5t-100.5 75.5t-140.5 29.5q-348 0 -348 -444z" />
<glyph unicode="&#xf1;" horiz-adv-x="1085" d="M143 31v962q0 31 31 31h2q55 0 55 -113v-57q132 190 367 190q61 0 108.5 -9t93.5 -34.5t75.5 -68.5t48 -115t18.5 -170v-616q0 -31 -31 -31h-26q-31 0 -31 31v532q0 63 -0.5 94.5t-6 83t-15.5 77.5t-30 60t-49.5 49.5t-74 27.5t-103.5 12t-114 -19.5t-98 -53t-74.5 -67 t-57.5 -71.5v-725q0 -31 -30 -31h-27q-31 0 -31 31zM225 1274q-19 27 0 43q98 84 193 98q47 8 98 -10t92 -40t60 -22q73 0 147 68q26 23 43 -2l4 -6q14 -25 0 -41q-43 -46 -82.5 -68.5t-91.5 -29.5q-43 -7 -94.5 10.5t-96 39t-65.5 21.5q-76 0 -158 -71q-28 -22 -45 4z" />
<glyph unicode="&#xf2;" d="M92 502q0 522 467 522q222 0 344.5 -128.5t122.5 -393.5q0 -249 -125 -385.5t-342 -136.5t-342 136.5t-125 385.5zM182 502q0 -221 97 -333t280 -112t280 112t97 333q0 222 -97 333t-280 111t-280 -111t-97 -333zM352.5 1372q-5.5 14 3.5 29l21 33q19 31 51 10l246 -170 q19 -13 6 -39l-4 -8q-15 -26 -37 -15l-266 138q-15 8 -20.5 22z" />
<glyph unicode="&#xf3;" d="M92 502q0 522 467 522q222 0 344.5 -128.5t122.5 -393.5q0 -249 -125 -385.5t-342 -136.5t-342 136.5t-125 385.5zM182 502q0 -221 97 -333t280 -112t280 112t97 333q0 222 -97 333t-280 111t-280 -111t-97 -333zM465 1235q-13 26 6 39l246 170q32 21 51 -10l20 -33 q9 -15 4 -29t-20 -22l-266 -138q-22 -11 -37 15z" />
<glyph unicode="&#xf4;" d="M92 502q0 522 467 522q222 0 344.5 -128.5t122.5 -393.5q0 -249 -125 -385.5t-342 -136.5t-342 136.5t-125 385.5zM182 502q0 -221 97 -333t280 -112t280 112t97 333q0 222 -97 333t-280 111t-280 -111t-97 -333zM287 1235q-13 26 6 39l246 170q6 6 14 6q2 2 8 2t8 -2 q9 0 15 -6l245 -170q9 -6 10.5 -18t-3.5 -21l-5 -8q-15 -26 -36 -15l-234 121l-233 -121q-22 -11 -37 15z" />
<glyph unicode="&#xf5;" d="M92 502q0 522 467 522q222 0 344.5 -128.5t122.5 -393.5q0 -249 -125 -385.5t-342 -136.5t-342 136.5t-125 385.5zM182 502q0 -221 97 -333t280 -112t280 112t97 333q0 222 -97 333t-280 111t-280 -111t-97 -333zM244 1274q-19 27 0 43q98 85 192 98q47 8 98 -10t92 -40 t60 -22q74 0 148 68q26 23 43 -2l4 -6q14 -25 0 -41q-43 -46 -82.5 -68.5t-91.5 -29.5q-43 -7 -94.5 10.5t-96 39t-65.5 21.5q-76 0 -158 -71q-28 -22 -45 4z" />
<glyph unicode="&#xf6;" d="M92 502q0 522 467 522q222 0 344.5 -128.5t122.5 -393.5q0 -249 -125 -385.5t-342 -136.5t-342 136.5t-125 385.5zM182 502q0 -221 97 -333t280 -112t280 112t97 333q0 222 -97 333t-280 111t-280 -111t-97 -333zM348 1378q0 32 18 49t48 17t48.5 -17.5t18.5 -48.5 q0 -61 -67 -61q-66 0 -66 61zM635 1378q0 32 17.5 49t47.5 17t49 -17.5t19 -48.5q0 -61 -68 -61q-65 0 -65 61z" />
<glyph unicode="&#xf7;" horiz-adv-x="1126" d="M164 510v12q0 31 31 31h737q31 0 31 -31v-12q0 -31 -31 -31h-737q-31 0 -31 31zM496 166q0 29 19 45t48 16t48.5 -16t19.5 -45q0 -64 -68 -64q-67 0 -67 64zM496 840q0 29 19 45t48 16t48.5 -16t19.5 -45q0 -64 -68 -64q-67 0 -67 64z" />
<glyph unicode="&#xf8;" d="M92 502q0 522 467 522q180 0 295 -84l35 45q16 19 37 19h37q20 0 25 -11t-7 -26l-66 -84q111 -133 111 -381q0 -249 -125 -385.5t-342 -136.5q-171 0 -291 88l-39 -50q-15 -18 -36 -18h-37q-20 0 -25.5 11t6.5 26l72 90q-117 135 -117 375zM182 502q0 -196 78 -309 l541 679q-92 74 -242 74q-183 0 -280 -111t-97 -333zM319 131q92 -74 240 -74q183 0 280 112t97 333q0 196 -78 309z" />
<glyph unicode="&#xf9;" horiz-adv-x="1079" d="M137 377v596q0 31 31 31h27q30 0 30 -31v-492q0 -90 2.5 -138.5t17.5 -112.5t44 -95.5t84.5 -54.5t136.5 -23q180 0 317 187v729q0 31 31 31h27q30 0 30 -31v-721q0 -110 21 -221q3 -14 -6 -22.5t-25 -8.5h-6q-20 0 -41 38t-24 95v17q-137 -170 -363 -170 q-162 0 -248 92.5t-86 304.5zM264.5 1372q-5.5 14 3.5 29l21 33q19 31 51 10l246 -170q19 -13 6 -39l-4 -8q-15 -26 -37 -15l-266 138q-15 8 -20.5 22z" />
<glyph unicode="&#xfa;" horiz-adv-x="1079" d="M137 377v596q0 31 31 31h27q30 0 30 -31v-492q0 -90 2.5 -138.5t17.5 -112.5t44 -95.5t84.5 -54.5t136.5 -23q180 0 317 187v729q0 31 31 31h27q30 0 30 -31v-721q0 -110 21 -221q3 -14 -6 -22.5t-25 -8.5h-6q-20 0 -41 38t-24 95v17q-137 -170 -363 -170 q-162 0 -248 92.5t-86 304.5zM436 1235q-13 26 6 39l246 170q32 21 51 -10l21 -33q9 -15 3.5 -29t-20.5 -22l-266 -138q-22 -11 -37 15z" />
<glyph unicode="&#xfb;" horiz-adv-x="1079" d="M137 377v596q0 31 31 31h27q30 0 30 -31v-492q0 -90 2.5 -138.5t17.5 -112.5t44 -95.5t84.5 -54.5t136.5 -23q180 0 317 187v729q0 31 31 31h27q30 0 30 -31v-721q0 -110 21 -221q3 -14 -6 -22.5t-25 -8.5h-6q-20 0 -41 38t-24 95v17q-137 -170 -363 -170 q-162 0 -248 92.5t-86 304.5zM252 1235q-13 26 6 39l246 170q6 6 14 6q2 2 8 2q7 0 9 -2q8 0 14 -6l246 -170q19 -13 6 -39l-4 -8q-15 -26 -37 -15l-234 121l-233 -121q-22 -11 -37 15z" />
<glyph unicode="&#xfc;" horiz-adv-x="1079" d="M137 377v596q0 31 31 31h27q30 0 30 -31v-492q0 -90 2.5 -138.5t17.5 -112.5t44 -95.5t84.5 -54.5t136.5 -23q180 0 317 187v729q0 31 31 31h27q30 0 30 -31v-721q0 -110 21 -221q3 -14 -6 -22.5t-25 -8.5h-6q-20 0 -41 38t-24 95v17q-137 -170 -363 -170 q-162 0 -248 92.5t-86 304.5zM315 1378q0 32 18 49t48 17t49 -17.5t19 -48.5q0 -61 -68 -61q-66 0 -66 61zM602 1378q0 32 18 49t48 17t48.5 -17.5t18.5 -48.5q0 -61 -67 -61q-66 0 -66 61z" />
<glyph unicode="&#xfd;" horiz-adv-x="995" d="M63 969q-6 15 1 25t24 10h27q26 0 35 -25l350 -901l344 897q10 29 33 29h26q18 0 26.5 -9t2.5 -24l-557 -1448q-12 -35 -45 -35h-19q-33 0 -24 35l182 477h-4q-26 0 -35 25zM387 1235q-13 26 6 39l246 170q32 21 51 -10l21 -33q9 -15 3.5 -29t-20.5 -22l-266 -138 q-22 -11 -37 15z" />
<glyph unicode="&#xfe;" horiz-adv-x="1112" d="M143 -481v1986q0 31 31 31h2q55 0 55 -113v-585q24 28 55 54.5t82 59t121.5 52.5t147.5 20q94 0 164.5 -33.5t111.5 -84.5t66 -123.5t33 -139t8 -141.5q0 -245 -136.5 -383.5t-367.5 -138.5q-110 0 -285 14v-475q0 -31 -30 -31h-27q-31 0 -31 31zM231 72q184 -15 287 -15 q193 0 302.5 115t109.5 330q0 44 -2.5 82t-10.5 85t-21.5 84.5t-38 74.5t-57.5 62t-81.5 40.5t-108.5 15.5q-81 0 -162.5 -35t-129 -72.5t-87.5 -80.5v-686z" />
<glyph unicode="&#xff;" horiz-adv-x="995" d="M63 969q-6 15 1 25t24 10h27q26 0 35 -25l350 -901l344 897q10 29 33 29h26q18 0 26.5 -9t2.5 -24l-557 -1448q-12 -35 -45 -35h-19q-33 0 -24 35l182 477h-4q-26 0 -35 25zM289 1378q0 32 17.5 49t47.5 17t49 -17.5t19 -48.5q0 -61 -68 -61q-65 0 -65 61zM575 1378 q0 32 18 49t48 17t49 -17.5t19 -48.5q0 -61 -68 -61q-66 0 -66 61z" />
<glyph unicode="&#x152;" horiz-adv-x="2025" d="M137 737q0 189 43 334t122.5 237.5t189 139.5t245.5 47q341 0 469 -315v264q0 31 31 31h612q31 0 31 -31v-23q0 -30 -31 -30h-551v-584h480q30 0 30 -31v-22q0 -31 -30 -31h-480v-639h574q31 0 31 -31v-22q0 -31 -31 -31h-635q-31 0 -31 31v260q-127 -311 -469 -311 q-136 0 -245.5 47t-189 139t-122.5 237t-43 334zM231 737q0 -315 132 -492t374 -177q226 0 346.5 176t120.5 493t-120.5 493.5t-346.5 176.5q-241 0 -373.5 -177t-132.5 -493z" />
<glyph unicode="&#x153;" horiz-adv-x="1898" d="M92 502q0 522 467 522q144 0 247.5 -62.5t154.5 -189.5q102 252 399 252q446 0 446 -485v-4q0 -31 -21 -50.5t-67 -19.5h-712q9 -214 112.5 -312.5t292.5 -95.5q158 2 318 127q14 6 20.5 1t17.5 -23l9 -12q10 -18 -19 -39q-184 -131 -379 -131q-62 0 -121 14t-115.5 44 t-103.5 83t-77 125q-52 -129 -156.5 -197.5t-245.5 -68.5q-217 0 -342 136.5t-125 385.5zM182 502q0 -221 97 -333t280 -112q168 0 262 112.5t94 332.5q0 221 -94 332.5t-262 111.5q-183 0 -280 -111t-97 -333zM1006 539h710q-3 73 -14 131.5t-36.5 111t-64.5 88t-99.5 56 t-139.5 20.5q-169 0 -259 -98.5t-97 -308.5z" />
<glyph unicode="&#x178;" horiz-adv-x="1169" d="M64 1464q6 11 26 11h35q27 0 39 -21l422 -706l420 706q12 21 38 21h35q20 0 26 -11t-3 -26l-471 -774v-633q0 -31 -31 -31h-31q-30 0 -30 31v633l-471 774q-10 15 -4 26zM375 1747q0 32 17.5 48.5t47.5 16.5t49 -17t19 -48q0 -61 -68 -61q-65 0 -65 61zM662 1747 q0 32 17.5 48.5t47.5 16.5t49 -17t19 -48q0 -61 -68 -61q-65 0 -65 61z" />
<glyph unicode="&#x2c6;" horiz-adv-x="598" d="M25 1235q-13 26 6 39l245 170q6 6 15 6q2 2 8 2t8 -2q9 0 15 -6l245 -170q19 -13 6 -39l-4 -8q-15 -26 -37 -15l-233 121l-233 -121q-22 -11 -37 15z" />
<glyph unicode="&#x2dc;" horiz-adv-x="675" d="M20 1274q-19 27 0 43q98 84 193 98q47 8 98 -10t92 -40t60 -22q73 0 147 68q26 23 43 -2l4 -6q14 -25 0 -41q-43 -46 -82.5 -68.5t-91.5 -29.5q-43 -7 -94.5 10.5t-96 39t-65.5 21.5q-75 0 -157 -71q-28 -22 -45 4z" />
<glyph unicode="&#x2000;" horiz-adv-x="995" />
<glyph unicode="&#x2001;" horiz-adv-x="1991" />
<glyph unicode="&#x2002;" horiz-adv-x="995" />
<glyph unicode="&#x2003;" horiz-adv-x="1991" />
<glyph unicode="&#x2004;" horiz-adv-x="663" />
<glyph unicode="&#x2005;" horiz-adv-x="497" />
<glyph unicode="&#x2006;" horiz-adv-x="331" />
<glyph unicode="&#x2007;" horiz-adv-x="331" />
<glyph unicode="&#x2008;" horiz-adv-x="248" />
<glyph unicode="&#x2009;" horiz-adv-x="398" />
<glyph unicode="&#x200a;" horiz-adv-x="110" />
<glyph unicode="&#x2010;" horiz-adv-x="675" d="M61 514v12q0 31 31 31h492q30 0 30 -31v-12q0 -31 -30 -31h-492q-31 0 -31 31z" />
<glyph unicode="&#x2011;" horiz-adv-x="675" d="M61 514v12q0 31 31 31h492q30 0 30 -31v-12q0 -31 -30 -31h-492q-31 0 -31 31z" />
<glyph unicode="&#x2012;" horiz-adv-x="675" d="M61 514v12q0 31 31 31h492q30 0 30 -31v-12q0 -31 -30 -31h-492q-31 0 -31 31z" />
<glyph unicode="&#x2013;" horiz-adv-x="1024" d="M61 514v12q0 31 31 31h840q31 0 31 -31v-12q0 -31 -31 -31h-840q-31 0 -31 31z" />
<glyph unicode="&#x2014;" horiz-adv-x="1617" d="M61 514v12q0 31 31 31h1434q30 0 30 -31v-12q0 -31 -30 -31h-1434q-31 0 -31 31z" />
<glyph unicode="&#x2018;" horiz-adv-x="219" d="M33 1266l84 209q3 10 15 14.5t20 1.5l14 -4q25 -7 22 -31l-36 -223q-3 -17 -16 -25t-30 -4l-51 15q-15 5 -21.5 17.5t-0.5 29.5z" />
<glyph unicode="&#x2019;" horiz-adv-x="219" d="M31 1239l37 223q3 17 15.5 25t29.5 4l51 -14q15 -5 21.5 -17.5t0.5 -29.5l-84 -209q-3 -10 -14.5 -15t-19.5 -2l-15 4q-25 7 -22 31z" />
<glyph unicode="&#x201a;" horiz-adv-x="256" d="M49 -154l37 224q3 17 15.5 25t29.5 3l51 -14q15 -5 22 -17.5t1 -29.5l-84 -209q-3 -10 -15 -14.5t-20 -1.5l-14 4q-11 3 -17.5 11.5t-5.5 18.5z" />
<glyph unicode="&#x201c;" horiz-adv-x="409" d="M33 1266l84 209q3 10 15 14.5t20 1.5l14 -4q25 -7 22 -31l-36 -223q-3 -17 -16 -25t-30 -4l-51 15q-15 5 -21.5 17.5t-0.5 29.5zM223 1266l84 209q3 10 15 14.5t20 1.5l14 -4q26 -8 23 -31l-37 -223q-3 -17 -15.5 -25t-29.5 -4l-51 15q-15 5 -22 17.5t-1 29.5z" />
<glyph unicode="&#x201d;" horiz-adv-x="409" d="M31 1239l37 223q3 17 15.5 25t29.5 4l51 -14q15 -5 21.5 -17.5t0.5 -29.5l-84 -209q-3 -10 -14.5 -15t-19.5 -2l-15 4q-25 7 -22 31zM221 1239l37 223q3 17 15.5 25t29.5 4l51 -14q15 -5 22 -17.5t1 -29.5l-84 -209q-3 -10 -15 -15t-20 -2l-14 4q-26 8 -23 31z" />
<glyph unicode="&#x201e;" horiz-adv-x="446" d="M49 -154l37 224q3 17 15.5 25t29.5 3l51 -14q15 -5 22 -17.5t1 -29.5l-84 -209q-3 -10 -15 -14.5t-20 -1.5l-14 4q-11 3 -17.5 11.5t-5.5 18.5zM240 -154l36 224q3 17 16 25t30 3l51 -14q15 -5 21.5 -17.5t0.5 -29.5l-84 -209q-3 -10 -15 -14.5t-20 -1.5l-14 4 q-25 7 -22 30z" />
<glyph unicode="&#x2022;" horiz-adv-x="413" d="M49 604q0 69 45 108.5t113 39.5q69 0 113.5 -39t44.5 -109q0 -75 -43.5 -110t-114.5 -35q-70 0 -114 35t-44 110z" />
<glyph unicode="&#x2026;" horiz-adv-x="700" d="M49 43q0 29 19.5 45t48.5 16t48 -16t19 -45q0 -63 -67 -63q-68 0 -68 63zM283 43q0 29 19 45t48 16t48.5 -16t19.5 -45q0 -63 -68 -63q-67 0 -67 63zM516 43q0 29 19.5 45t48.5 16t48 -16t19 -45q0 -63 -67 -63q-68 0 -68 63z" />
<glyph unicode="&#x202f;" horiz-adv-x="398" />
<glyph unicode="&#x2039;" horiz-adv-x="530" d="M92 512q0 8 8 20l273 388q6 9 18 11t21 -3l10 -6q24 -16 12 -37l-205 -373l205 -373q12 -21 -12 -37l-10 -6q-9 -5 -21 -3t-18 11l-273 388q-8 12 -8 20z" />
<glyph unicode="&#x203a;" horiz-adv-x="528" d="M94 139l205 373l-205 373q-12 21 12 37l11 6q9 5 21 3t18 -11l272 -388q8 -12 8 -20t-8 -20l-272 -388q-6 -9 -18 -11t-21 3l-11 6q-24 16 -12 37z" />
<glyph unicode="&#x205f;" horiz-adv-x="497" />
<glyph unicode="&#x20ac;" horiz-adv-x="1300" d="M133 506v10q0 31 31 31h102q-8 60 -8 139q0 54 6 107h-100q-31 0 -31 30v11q0 30 31 30h108q44 249 201 389t385 140q111 0 195 -24t161 -77q9 -6 11.5 -17t-2.5 -20l-9 -14q-9 -14 -24.5 -16t-28.5 8q-61 37 -142.5 59.5t-162.5 22.5q-201 0 -327 -120.5t-164 -328.5 h575q17 0 23.5 -11t-2.5 -26l-9 -14q-11 -22 -37 -22h-561q-6 -52 -6 -107q0 -80 8 -137h412q17 0 23 -11t-3 -26l-8 -14q-13 -23 -37 -23h-372q44 -193 169 -305.5t318 -112.5q83 0 175.5 38.5t156.5 88.5q37 26 55 -4l8 -12q14 -25 -4 -37q-197 -151 -411 -151 q-219 0 -366 130.5t-193 364.5h-115q-31 0 -31 31z" />
<glyph unicode="&#x2122;" horiz-adv-x="1421" d="M61 1409v10q0 31 31 31h432q31 0 31 -31v-10q0 -31 -31 -31h-178v-485q0 -31 -31 -31h-14q-31 0 -31 31v485h-178q-31 0 -31 31zM664 893v526q0 31 30 31h2q32 0 45 -18l199 -263l199 263q13 18 45 18h2q31 0 31 -31v-526q0 -31 -31 -31h-12q-33 0 -33 31l2 412 l-170 -213q-15 -15 -33 -15t-33 15l-170 213l2 -412q0 -31 -30 -31h-15q-30 0 -30 31z" />
<glyph unicode="&#x25fc;" horiz-adv-x="1003" d="M0 0v1004h1004v-1004h-1004z" />
<glyph unicode="&#xfb03;" horiz-adv-x="1736" d="M31 961v26l170 12v207q0 164 56.5 247t191.5 83q80 0 196 -43q1 0 5 -2l5 -2.5t5 -2t5 -3t4 -3.5t3.5 -3.5t1.5 -4t1 -5t-1 -5.5l-4 -14q-5 -21 -12 -29.5t-19 -3.5q-37 17 -85 30t-77 13q-115 0 -151.5 -58t-36.5 -226v-170h532v202q0 165 58 247.5t202 82.5 q81 0 131.5 -9.5t114.5 -33.5q1 0 5 -2l5 -2.5t5 -2t5 -3t4 -3.5t3.5 -3.5t1.5 -4t1 -5t-1 -5.5l-4 -14q-5 -21 -12 -29.5t-19 -3.5q-92 43 -223 43q-115 0 -152 -58t-37 -226v-170h580q31 0 31 -31v-942q0 -31 -31 -31h-27q-30 0 -30 31v899h-523v-899q0 -31 -30 -31h-27 q-31 0 -31 31v899h-532v-899q0 -31 -31 -31h-27q-30 0 -30 31v899h-140q-30 0 -30 31z" />
</font>
</defs>
</svg>
